<svg width="440" height="347" viewBox="0 0 440 347" fill="none" xmlns="http://www.w3.org/2000/svg">
<g clip-path="url(#clip0)">
<path d="M93.8975 0.260468C79.9743 -0.251991 65.4302 -0.612313 52.8408 5.35303C40.2514 11.3184 30.518 25.7713 34.7398 39.0592C36.1177 43.3911 38.8014 47.1665 41.0646 51.11C52.3802 70.8317 52.9049 96.3225 42.4144 116.497C34.3393 132.026 20.6524 143.845 10.7987 158.314C0.945136 172.783 -4.6546 192.837 5.03879 207.414C11.676 217.395 23.993 222.251 35.9255 223.428C47.8579 224.605 59.8585 222.752 71.8431 222.275C95.1641 221.38 118.386 225.769 139.769 235.115C169.206 248.014 194.565 270.082 225.559 278.598C229.281 279.619 233.17 280.443 236.975 279.751C243.725 278.522 248.631 272.945 253.915 268.541C270.782 254.58 294.134 251.974 316.028 251.325C337.923 250.677 360.726 251.177 380.517 241.781C397.797 233.577 411.1 218.316 419.371 201.076C427.643 183.837 431.236 164.68 432.589 145.603C433.391 134.248 433.363 122.526 429.297 111.896C424.727 99.9457 415.458 90.4292 405.736 82.1098C395.578 73.414 384.507 65.5349 371.966 60.8427C356.985 55.2377 340.723 54.437 324.772 53.1078C292.065 50.3775 259.612 45.1685 227.694 37.5258C197.4 30.2874 164.139 22.3803 136.548 7.63507C122.701 0.232443 109.507 0.82097 93.8975 0.260468Z" transform="translate(7)" fill="#1052B4"/>
<g opacity="0.1">
<path opacity="0.1" d="M0 56.8269C0 56.8269 1.41794 36.9651 12.6014 26.1354C17.3226 21.6233 20.4515 15.7017 21.5177 9.26029C21.9991 6.19819 22.2002 3.0986 22.1185 0" transform="translate(292.947 195.275)" fill="#0052CC"/>
<path opacity="0.1" d="M8.1811 5.72098C7.35996 7.91495 1.01121 12.7913 1.01121 12.7913C1.01121 12.7913 -0.591003 4.94829 0.238142 2.75432C0.631737 1.70153 1.42763 0.848133 2.45074 0.381875C3.47386 -0.0843823 4.64037 -0.125314 5.69368 0.26809C6.74698 0.661493 7.60078 1.45701 8.06727 2.47963C8.53375 3.50224 8.57469 4.66819 8.1811 5.72098V5.72098Z" transform="translate(313.89 182.688)" fill="#0052CC"/>
<path opacity="0.1" d="M9.86162 7.57854C7.97902 8.97178 0 9.61635 0 9.61635C0 9.61635 2.92404 2.16569 4.80664 0.768436C5.71149 0.134241 6.82827 -0.121953 7.91924 0.054393C9.01022 0.230739 9.98925 0.825707 10.648 1.71264C11.3067 2.59957 11.5931 3.70844 11.4463 4.80325C11.2994 5.89806 10.7308 6.89237 9.86162 7.57453V7.57854Z" transform="translate(314.236 195.432)" fill="#0052CC"/>
<path opacity="0.1" d="M9.54519 8.4139C7.21397 8.67013 0 5.21103 0 5.21103C0 5.21103 6.28869 0.254592 8.61591 0.00636954C9.69775 -0.0529721 10.7612 0.304079 11.5878 1.00419C12.4144 1.70429 12.9414 2.69428 13.0604 3.77068C13.1793 4.84707 12.8813 5.92812 12.2275 6.79169C11.5738 7.65527 10.6139 8.23577 9.54519 8.4139Z" transform="translate(306.506 215.243)" fill="#0052CC"/>
<path opacity="0.1" d="M9.94976 8.34677C7.69865 8.99134 0 6.78937 0 6.78937C0 6.78937 5.3594 0.844059 7.61051 0.199482C8.15105 0.0276265 8.72058 -0.0341305 9.28541 0.0178737C9.85024 0.0698778 10.3989 0.234583 10.8989 0.502243C11.399 0.769903 11.8402 1.13508 12.1966 1.57618C12.5529 2.01727 12.8171 2.52531 12.9736 3.07027C13.1301 3.61522 13.1756 4.186 13.1075 4.74884C13.0394 5.31169 12.859 5.85517 12.5771 6.34713C12.2952 6.83908 11.9174 7.26954 11.4661 7.613C11.0148 7.95647 10.4992 8.20597 9.94976 8.34677V8.34677Z" transform="translate(296.492 229.562)" fill="#0052CC"/>
<path opacity="0.1" d="M0.358333 5.94532C1.35972 8.05921 8.09703 12.3791 8.09703 12.3791C8.09703 12.3791 9.02631 4.43196 8.02092 2.31406C7.51952 1.33108 6.65448 0.582179 5.60953 0.226427C4.56459 -0.129326 3.42206 -0.0639005 2.42459 0.408792C1.42713 0.881485 0.653323 1.72421 0.26751 2.75799C-0.118304 3.79177 -0.0857242 4.93516 0.358333 5.94532V5.94532Z" transform="translate(305.378 196.412)" fill="#0052CC"/>
<path opacity="0.1" d="M1.11748 7.10749C2.71969 8.82502 10.4303 10.9349 10.4303 10.9349C10.4303 10.9349 8.93627 3.07187 7.34608 1.35033C6.58112 0.529322 5.5218 0.0448153 4.40014 0.00295538C3.27848 -0.0389045 2.18596 0.365304 1.36188 1.12701C0.537804 1.88871 0.0493451 2.94582 0.00353759 4.06678C-0.0422699 5.18773 0.358294 6.28114 1.11748 7.10749V7.10749Z" transform="translate(293.592 212.061)" fill="#0052CC"/>
<path opacity="0.1" d="M0.621632 6.4494C1.89539 8.41116 9.15341 11.7942 9.15341 11.7942C9.15341 11.7942 9.00922 3.78703 7.73145 1.82927C7.10363 0.921303 6.14632 0.293835 5.06295 0.0801983C3.97958 -0.133439 2.85556 0.0836045 1.92976 0.685208C1.00397 1.28681 0.349371 2.22554 0.105098 3.30191C-0.139175 4.37828 0.0461407 5.50743 0.621632 6.4494Z" transform="translate(285.616 230.527)" fill="#0052CC"/>
<path opacity="0.1" d="M8.1811 5.72098C7.35996 7.91495 1.01121 12.7913 1.01121 12.7913C1.01121 12.7913 -0.591003 4.94829 0.238142 2.75432C0.631737 1.70153 1.42763 0.848133 2.45074 0.381875C3.47386 -0.0843823 4.64037 -0.125314 5.69368 0.26809C6.74698 0.661493 7.60078 1.45701 8.06727 2.47963C8.53375 3.50224 8.57469 4.66819 8.1811 5.72098V5.72098Z" transform="translate(313.89 182.688)" fill="#0052CC"/>
<path opacity="0.1" d="M9.86162 7.57854C7.97902 8.97178 0 9.61635 0 9.61635C0 9.61635 2.92404 2.16569 4.80664 0.768436C5.71149 0.134241 6.82827 -0.121953 7.91924 0.054393C9.01022 0.230739 9.98925 0.825707 10.648 1.71264C11.3067 2.59957 11.5931 3.70844 11.4463 4.80325C11.2994 5.89806 10.7308 6.89237 9.86162 7.57453V7.57854Z" transform="translate(314.236 195.432)" fill="#0052CC"/>
<path opacity="0.1" d="M9.54519 8.4139C7.21397 8.67013 0 5.21103 0 5.21103C0 5.21103 6.28869 0.254592 8.61591 0.00636954C9.69775 -0.0529721 10.7612 0.304079 11.5878 1.00419C12.4144 1.70429 12.9414 2.69428 13.0604 3.77068C13.1793 4.84707 12.8813 5.92812 12.2275 6.79169C11.5738 7.65527 10.6139 8.23577 9.54519 8.4139Z" transform="translate(306.506 215.243)" fill="#0052CC"/>
<path opacity="0.1" d="M9.94976 8.34677C7.69865 8.99134 0 6.78937 0 6.78937C0 6.78937 5.3594 0.844059 7.61051 0.199482C8.15105 0.0276265 8.72058 -0.0341305 9.28541 0.0178737C9.85024 0.0698778 10.3989 0.234583 10.8989 0.502243C11.399 0.769903 11.8402 1.13508 12.1966 1.57618C12.5529 2.01727 12.8171 2.52531 12.9736 3.07027C13.1301 3.61522 13.1756 4.186 13.1075 4.74884C13.0394 5.31169 12.859 5.85517 12.5771 6.34713C12.2952 6.83908 11.9174 7.26954 11.4661 7.613C11.0148 7.95647 10.4992 8.20597 9.94976 8.34677V8.34677Z" transform="translate(296.492 229.562)" fill="#0052CC"/>
<path opacity="0.1" d="M0.358333 5.94532C1.35972 8.05921 8.09703 12.3791 8.09703 12.3791C8.09703 12.3791 9.02631 4.43196 8.02092 2.31406C7.51952 1.33108 6.65448 0.582179 5.60953 0.226427C4.56459 -0.129326 3.42206 -0.0639005 2.42459 0.408792C1.42713 0.881485 0.653323 1.72421 0.26751 2.75799C-0.118304 3.79177 -0.0857242 4.93516 0.358333 5.94532V5.94532Z" transform="translate(305.378 196.412)" fill="#0052CC"/>
<path opacity="0.1" d="M1.11748 7.10749C2.71969 8.82502 10.4303 10.9349 10.4303 10.9349C10.4303 10.9349 8.93627 3.07187 7.34608 1.35033C6.58112 0.529322 5.5218 0.0448153 4.40014 0.00295538C3.27848 -0.0389045 2.18596 0.365304 1.36188 1.12701C0.537804 1.88871 0.0493451 2.94582 0.00353759 4.06678C-0.0422699 5.18773 0.358294 6.28114 1.11748 7.10749V7.10749Z" transform="translate(293.592 212.061)" fill="#0052CC"/>
<path opacity="0.1" d="M0.621632 6.4494C1.89539 8.41116 9.15341 11.7942 9.15341 11.7942C9.15341 11.7942 9.00922 3.78703 7.73145 1.82927C7.10363 0.921303 6.14632 0.293835 5.06295 0.0801983C3.97958 -0.133439 2.85556 0.0836045 1.92976 0.685208C1.00397 1.28681 0.349371 2.22554 0.105098 3.30191C-0.139175 4.37828 0.0461407 5.50743 0.621632 6.4494Z" transform="translate(285.616 230.527)" fill="#0052CC"/>
</g>
<g opacity="0.1">
<path opacity="0.1" d="M0 56.8269C0 56.8269 1.41794 36.9651 12.6014 26.1354C17.321 21.6221 20.4495 15.701 21.5177 9.26029C22.003 6.19862 22.2041 3.09867 22.1185 0" transform="translate(296.872 120.096)" fill="#0052CC"/>
<path opacity="0.1" d="M8.1791 5.72098C7.378 7.91094 1.01322 12.7873 1.01322 12.7873C1.01322 12.7873 -0.588992 4.94429 0.236148 2.75432C0.629742 1.70153 1.42564 0.848133 2.44875 0.381876C3.47186 -0.0843824 4.63838 -0.125314 5.69168 0.26809C6.74499 0.661493 7.59879 1.45701 8.06527 2.47963C8.53176 3.50224 8.5727 4.66819 8.1791 5.72098V5.72098Z" transform="translate(317.817 107.509)" fill="#0052CC"/>
<path opacity="0.1" d="M9.86162 7.71118C7.98303 9.10843 0 9.749 0 9.749C0 9.749 2.92404 2.30233 4.80664 0.905082C5.25237 0.555281 5.7637 0.298297 6.31045 0.149303C6.8572 0.000309733 7.42827 -0.0376678 7.98994 0.0376065C8.55162 0.112881 9.0925 0.299885 9.58067 0.587574C10.0688 0.875263 10.4944 1.2578 10.8322 1.7126C11.17 2.16741 11.4131 2.68527 11.5474 3.23558C11.6816 3.78588 11.7041 4.3575 11.6137 4.91666C11.5232 5.47582 11.3216 6.01119 11.0206 6.49116C10.7197 6.97113 10.3256 7.38597 9.86162 7.71118V7.71118Z" transform="translate(318.174 120.116)" fill="#0052CC"/>
<path opacity="0.1" d="M9.54118 8.44212C7.21397 8.69835 0 5.23925 0 5.23925C0 5.23925 6.28869 0.286812 8.61591 0.0345866C9.17497 -0.0372286 9.74275 0.00304582 10.2861 0.153052C10.8294 0.303058 11.3373 0.559789 11.7802 0.908245C12.2232 1.2567 12.5921 1.68989 12.8656 2.18251C13.1391 2.67512 13.3117 3.21728 13.3732 3.77731C13.4346 4.33733 13.3838 4.90399 13.2237 5.44417C13.0636 5.98434 12.7974 6.4872 12.4406 6.92337C12.0839 7.35954 11.6437 7.72026 11.1459 7.98447C10.648 8.24867 10.1025 8.41106 9.54118 8.46214V8.44212Z" transform="translate(310.435 140.035)" fill="#0052CC"/>
<path opacity="0.1" d="M9.94976 8.30047C7.69865 8.94505 0 6.74308 0 6.74308C0 6.74308 5.36341 0.797759 7.61051 0.149178C8.68684 -0.143988 9.83539 -0.0015607 10.8074 0.545627C11.7794 1.09281 12.4967 2.0007 12.8038 3.07266C13.1109 4.14461 12.9831 5.29434 12.4482 6.27283C11.9132 7.25131 11.0142 7.97979 9.94575 8.30047H9.94976Z" transform="translate(300.417 154.429)" fill="#0052CC"/>
<path opacity="0.1" d="M0.443823 6.12784C1.44521 8.24574 8.18653 12.5656 8.18653 12.5656C8.18653 12.5656 9.1118 4.61449 8.11042 2.5006C7.87907 1.9865 7.54747 1.52367 7.13503 1.1392C6.72258 0.75472 6.23758 0.456316 5.70837 0.261432C5.17917 0.0665476 4.61638 -0.0208979 4.05296 0.00420694C3.48954 0.0293118 2.93679 0.166466 2.42703 0.407644C1.91727 0.648823 1.46074 0.989177 1.08416 1.40881C0.707581 1.82844 0.418506 2.31892 0.233841 2.85156C0.0491764 3.38419 -0.0273783 3.94829 0.00867639 4.51084C0.044731 5.0734 0.192673 5.62311 0.443823 6.12784Z" transform="translate(309.218 121.046)" fill="#0052CC"/>
<path opacity="0.1" d="M1.05398 7.03678C2.6562 8.75833 10.3709 10.8642 10.3709 10.8642C10.3709 10.8642 8.8728 3.00117 7.28261 1.28364C6.51129 0.491028 5.4607 0.0309563 4.35486 0.00150587C3.24901 -0.0279446 2.1754 0.375557 1.36296 1.12599C0.550509 1.87642 0.0634997 2.91439 0.00578261 4.01858C-0.0519345 5.12277 0.324198 6.20582 1.05398 7.03678V7.03678Z" transform="translate(297.581 136.948)" fill="#0052CC"/>
<path opacity="0.1" d="M0.75229 6.65033C2.03006 8.61208 9.28407 11.9951 9.28407 11.9951C9.28407 11.9951 9.13988 3.98794 7.86211 2.03019C7.56654 1.54639 7.17692 1.12675 6.71627 0.796085C6.25562 0.465417 5.7333 0.230433 5.18021 0.105037C4.62712 -0.0203602 4.05448 -0.0336247 3.49617 0.0660245C2.93786 0.165674 2.40523 0.376214 1.92975 0.685195C1.45426 0.994176 1.04559 1.39533 0.727916 1.86491C0.410238 2.3345 0.189996 2.86299 0.0802193 3.41914C-0.0295571 3.97528 -0.026636 4.54778 0.0888005 5.10277C0.204237 5.65777 0.429845 6.184 0.75229 6.65033Z" transform="translate(289.411 155.147)" fill="#0052CC"/>
<path opacity="0.1" d="M8.1791 5.72098C7.378 7.91094 1.01322 12.7873 1.01322 12.7873C1.01322 12.7873 -0.588992 4.94429 0.236148 2.75432C0.629742 1.70153 1.42564 0.848133 2.44875 0.381876C3.47186 -0.0843824 4.63838 -0.125314 5.69168 0.26809C6.74499 0.661493 7.59879 1.45701 8.06527 2.47963C8.53176 3.50224 8.5727 4.66819 8.1791 5.72098V5.72098Z" transform="translate(317.817 107.509)" fill="#0052CC"/>
<path opacity="0.1" d="M9.86162 7.71118C7.98303 9.10843 0 9.749 0 9.749C0 9.749 2.92404 2.30233 4.80664 0.905082C5.25237 0.555281 5.7637 0.298297 6.31045 0.149303C6.8572 0.000309733 7.42827 -0.0376678 7.98994 0.0376065C8.55162 0.112881 9.0925 0.299885 9.58067 0.587574C10.0688 0.875263 10.4944 1.2578 10.8322 1.7126C11.17 2.16741 11.4131 2.68527 11.5474 3.23558C11.6816 3.78588 11.7041 4.3575 11.6137 4.91666C11.5232 5.47582 11.3216 6.01119 11.0206 6.49116C10.7197 6.97113 10.3256 7.38597 9.86162 7.71118V7.71118Z" transform="translate(318.174 120.116)" fill="#0052CC"/>
<path opacity="0.1" d="M9.54118 8.44212C7.21397 8.69835 0 5.23925 0 5.23925C0 5.23925 6.28869 0.286812 8.61591 0.0345866C9.17497 -0.0372286 9.74275 0.00304582 10.2861 0.153052C10.8294 0.303058 11.3373 0.559789 11.7802 0.908245C12.2232 1.2567 12.5921 1.68989 12.8656 2.18251C13.1391 2.67512 13.3117 3.21728 13.3732 3.77731C13.4346 4.33733 13.3838 4.90399 13.2237 5.44417C13.0636 5.98434 12.7974 6.4872 12.4406 6.92337C12.0839 7.35954 11.6437 7.72026 11.1459 7.98447C10.648 8.24867 10.1025 8.41106 9.54118 8.46214V8.44212Z" transform="translate(310.435 140.035)" fill="#0052CC"/>
<path opacity="0.1" d="M9.94976 8.30047C7.69865 8.94505 0 6.74308 0 6.74308C0 6.74308 5.36341 0.797759 7.61051 0.149178C8.68684 -0.143988 9.83539 -0.0015607 10.8074 0.545627C11.7794 1.09281 12.4967 2.0007 12.8038 3.07266C13.1109 4.14461 12.9831 5.29434 12.4482 6.27283C11.9132 7.25131 11.0142 7.97979 9.94575 8.30047H9.94976Z" transform="translate(300.417 154.429)" fill="#0052CC"/>
<path opacity="0.1" d="M0.443823 6.12784C1.44521 8.24574 8.18653 12.5656 8.18653 12.5656C8.18653 12.5656 9.1118 4.61449 8.11042 2.5006C7.87907 1.9865 7.54747 1.52367 7.13503 1.1392C6.72258 0.75472 6.23758 0.456316 5.70837 0.261432C5.17917 0.0665476 4.61638 -0.0208979 4.05296 0.00420694C3.48954 0.0293118 2.93679 0.166466 2.42703 0.407644C1.91727 0.648823 1.46074 0.989177 1.08416 1.40881C0.707581 1.82844 0.418506 2.31892 0.233841 2.85156C0.0491764 3.38419 -0.0273783 3.94829 0.00867639 4.51084C0.044731 5.0734 0.192673 5.62311 0.443823 6.12784Z" transform="translate(309.218 121.046)" fill="#0052CC"/>
<path opacity="0.1" d="M1.05398 7.03678C2.6562 8.75833 10.3709 10.8642 10.3709 10.8642C10.3709 10.8642 8.8728 3.00117 7.28261 1.28364C6.51129 0.491028 5.4607 0.0309563 4.35486 0.00150587C3.24901 -0.0279446 2.1754 0.375557 1.36296 1.12599C0.550509 1.87642 0.0634997 2.91439 0.00578261 4.01858C-0.0519345 5.12277 0.324198 6.20582 1.05398 7.03678V7.03678Z" transform="translate(297.581 136.948)" fill="#0052CC"/>
<path opacity="0.1" d="M0.75229 6.65033C2.03006 8.61208 9.28407 11.9951 9.28407 11.9951C9.28407 11.9951 9.13988 3.98794 7.86211 2.03019C7.56654 1.54639 7.17692 1.12675 6.71627 0.796085C6.25562 0.465417 5.7333 0.230433 5.18021 0.105037C4.62712 -0.0203602 4.05448 -0.0336247 3.49617 0.0660245C2.93786 0.165674 2.40523 0.376214 1.92975 0.685195C1.45426 0.994176 1.04559 1.39533 0.727916 1.86491C0.410238 2.3345 0.189996 2.86299 0.0802193 3.41914C-0.0295571 3.97528 -0.026636 4.54778 0.0888005 5.10277C0.204237 5.65777 0.429845 6.184 0.75229 6.65033Z" transform="translate(289.411 155.147)" fill="#0052CC"/>
</g>
<path d="M40.8484 45.2845C40.8484 45.2845 23.7408 35.0914 19.0824 20.2461C17.1744 14.0021 13.2891 8.54647 8.01107 4.70022C5.49084 2.89083 2.80914 1.31744 0 0" transform="translate(43.5343 157.661)" stroke="#2C76E2" stroke-width="0.700464" stroke-miterlimit="10"/>
<path d="M7.27286 1.27367C8.87507 2.99121 10.3691 10.8542 10.3691 10.8542C10.3691 10.8542 2.64246 8.75236 1.05227 7.03482C0.323935 6.20449 -0.0515422 5.1229 0.00570311 4.02011C0.0629484 2.91733 0.548399 1.88037 1.35879 1.12983C2.16919 0.37929 3.24057 -0.0256064 4.34505 0.00125607C5.44953 0.0281185 6.49995 0.484624 7.27286 1.27367Z" transform="translate(33.2773 147.035)" fill="#2974E4"/>
<path d="M8.43767 3.61674C8.83822 5.9228 5.82606 13.3374 5.82606 13.3374C5.82606 13.3374 0.482676 7.3761 0.0821231 5.07004C-0.0286925 4.51536 -0.027345 3.94413 0.0860836 3.38998C0.199512 2.83583 0.422725 2.30997 0.742587 1.84336C1.06245 1.37675 1.47249 0.978834 1.94856 0.673036C2.42463 0.367238 2.95711 0.159744 3.51463 0.0627725C4.07215 -0.0341992 4.64346 -0.018687 5.19489 0.108394C5.74633 0.235476 6.26675 0.471562 6.7255 0.802742C7.18426 1.13392 7.57208 1.55351 7.86613 2.03678C8.16018 2.52006 8.3545 3.05725 8.43767 3.61674V3.61674Z" transform="translate(46.0718 149.469)" fill="#2974E4"/>
<path d="M8.18114 5.83084C7.38003 8.0248 1.01524 12.9052 1.01524 12.9052C1.01524 12.9052 -0.586974 5.06215 0.23416 2.87219C0.417082 2.33568 0.705774 1.84127 1.08317 1.41821C1.46057 0.995139 1.91901 0.652 2.43138 0.409086C2.94376 0.166172 3.49966 0.0284126 4.06622 0.00395067C4.63278 -0.0205113 5.19849 0.0688144 5.72991 0.266662C6.26133 0.464509 6.74767 0.766862 7.16016 1.15582C7.57265 1.54479 7.90293 2.01246 8.13146 2.53121C8.35999 3.04996 8.48213 3.60925 8.49066 4.176C8.4992 4.74275 8.39394 5.30545 8.18114 5.83084V5.83084Z" transform="translate(61.1648 163.701)" fill="#2974E4"/>
<path d="M8.37623 5.00409C7.94363 7.30615 2.51213 13.2074 2.51213 13.2074C2.51213 13.2074 -0.391881 5.74875 0.0447217 3.45069C0.148083 2.9039 0.358183 2.38282 0.663026 1.91719C0.967868 1.45156 1.36148 1.0505 1.82139 0.736911C2.28131 0.423325 2.79851 0.203353 3.34348 0.0895538C3.88845 -0.0242457 4.4505 -0.029641 4.99756 0.0736705C5.54461 0.176982 6.06596 0.386973 6.53181 0.691668C6.99767 0.996362 7.39893 1.38979 7.71266 1.84948C8.0264 2.30917 8.24648 2.82612 8.36034 3.37082C8.47419 3.91553 8.47959 4.47731 8.37623 5.0241V5.00409Z" transform="translate(69.3854 179.513)" fill="#2974E4"/>
<path d="M4.05833 8.46362C6.39756 8.51967 13.2911 4.46003 13.2911 4.46003C13.2911 4.46003 6.60184 0.0560832 4.2586 3.30575e-05C3.14805 -0.00434744 2.08006 0.426776 1.28403 1.20079C0.487996 1.97481 0.0274063 3.02998 0.00118397 4.13969C-0.0250384 5.2494 0.385198 6.32514 1.14378 7.13585C1.90237 7.94657 2.9488 8.4276 4.05833 8.47563V8.46362Z" transform="translate(41.6149 160.7)" fill="#2974E4"/>
<path d="M5.31374 8.26702C7.56485 7.61844 12.9243 1.66911 12.9243 1.66911C12.9243 1.66911 5.22562 -0.528858 2.97451 0.119723C1.91735 0.450532 1.0316 1.18157 0.506617 2.15656C-0.018369 3.13154 -0.140941 4.27311 0.165111 5.33724C0.471164 6.40136 1.18155 7.3036 2.14441 7.85108C3.10728 8.39857 4.24621 8.54785 5.31775 8.26702H5.31374Z" transform="translate(50.4254 178.3)" fill="#2974E4"/>
<path d="M4.93492 8.4219C7.26614 8.16567 13.5508 3.21724 13.5508 3.21724C13.5508 3.21724 6.34086 -0.249865 4.00564 0.0143712C3.43029 0.0459305 2.86742 0.194429 2.35144 0.450797C1.83546 0.707166 1.37721 1.06601 1.00469 1.5054C0.632175 1.9448 0.35322 2.4555 0.184881 3.00631C0.0165418 3.55712 -0.0376453 4.13645 0.0256278 4.70891C0.0889009 5.28136 0.268309 5.83491 0.552882 6.33571C0.837455 6.8365 1.22122 7.27403 1.68071 7.62155C2.1402 7.96907 2.66577 8.21929 3.2253 8.3569C3.78483 8.49451 4.36655 8.51663 4.93492 8.4219V8.4219Z" transform="translate(62.9089 193.715)" fill="#2974E4"/>
<path d="M7.27286 1.27367C8.87507 2.99121 10.3691 10.8542 10.3691 10.8542C10.3691 10.8542 2.64246 8.75236 1.05227 7.03482C0.323935 6.20449 -0.0515422 5.1229 0.00570311 4.02011C0.0629484 2.91733 0.548399 1.88037 1.35879 1.12983C2.16919 0.37929 3.24057 -0.0256064 4.34505 0.00125607C5.44953 0.0281185 6.49995 0.484624 7.27286 1.27367Z" transform="translate(33.2773 147.035)" fill="#2974E4"/>
<path d="M8.43767 3.61674C8.83822 5.9228 5.82606 13.3374 5.82606 13.3374C5.82606 13.3374 0.482676 7.3761 0.0821231 5.07004C-0.0286925 4.51536 -0.027345 3.94413 0.0860836 3.38998C0.199512 2.83583 0.422725 2.30997 0.742587 1.84336C1.06245 1.37675 1.47249 0.978834 1.94856 0.673036C2.42463 0.367238 2.95711 0.159744 3.51463 0.0627725C4.07215 -0.0341992 4.64346 -0.018687 5.19489 0.108394C5.74633 0.235476 6.26675 0.471562 6.7255 0.802742C7.18426 1.13392 7.57208 1.55351 7.86613 2.03678C8.16018 2.52006 8.3545 3.05725 8.43767 3.61674V3.61674Z" transform="translate(46.0718 149.469)" fill="#2974E4"/>
<path d="M8.18114 5.83084C7.38003 8.0248 1.01524 12.9052 1.01524 12.9052C1.01524 12.9052 -0.586974 5.06215 0.23416 2.87219C0.417082 2.33568 0.705774 1.84127 1.08317 1.41821C1.46057 0.995139 1.91901 0.652 2.43138 0.409086C2.94376 0.166172 3.49966 0.0284126 4.06622 0.00395067C4.63278 -0.0205113 5.19849 0.0688144 5.72991 0.266662C6.26133 0.464509 6.74767 0.766862 7.16016 1.15582C7.57265 1.54479 7.90293 2.01246 8.13146 2.53121C8.35999 3.04996 8.48213 3.60925 8.49066 4.176C8.4992 4.74275 8.39394 5.30545 8.18114 5.83084V5.83084Z" transform="translate(61.1648 163.701)" fill="#2974E4"/>
<path d="M8.37623 5.00409C7.94363 7.30615 2.51213 13.2074 2.51213 13.2074C2.51213 13.2074 -0.391881 5.74875 0.0447217 3.45069C0.148083 2.9039 0.358183 2.38282 0.663026 1.91719C0.967868 1.45156 1.36148 1.0505 1.82139 0.736911C2.28131 0.423325 2.79851 0.203353 3.34348 0.0895538C3.88845 -0.0242457 4.4505 -0.029641 4.99756 0.0736705C5.54461 0.176982 6.06596 0.386973 6.53181 0.691668C6.99767 0.996362 7.39893 1.38979 7.71266 1.84948C8.0264 2.30917 8.24648 2.82612 8.36034 3.37082C8.47419 3.91553 8.47959 4.47731 8.37623 5.0241V5.00409Z" transform="translate(69.3854 179.513)" fill="#2974E4"/>
<path d="M4.05833 8.46362C6.39756 8.51967 13.2911 4.46003 13.2911 4.46003C13.2911 4.46003 6.60184 0.0560832 4.2586 3.30575e-05C3.14805 -0.00434744 2.08006 0.426776 1.28403 1.20079C0.487996 1.97481 0.0274063 3.02998 0.00118397 4.13969C-0.0250384 5.2494 0.385198 6.32514 1.14378 7.13585C1.90237 7.94657 2.9488 8.4276 4.05833 8.47563V8.46362Z" transform="translate(41.6149 160.7)" fill="#2974E4"/>
<path d="M5.31374 8.26702C7.56485 7.61844 12.9243 1.66911 12.9243 1.66911C12.9243 1.66911 5.22562 -0.528858 2.97451 0.119723C1.91735 0.450532 1.0316 1.18157 0.506617 2.15656C-0.018369 3.13154 -0.140941 4.27311 0.165111 5.33724C0.471164 6.40136 1.18155 7.3036 2.14441 7.85108C3.10728 8.39857 4.24621 8.54785 5.31775 8.26702H5.31374Z" transform="translate(50.4254 178.3)" fill="#2974E4"/>
<path d="M4.93492 8.4219C7.26614 8.16567 13.5508 3.21724 13.5508 3.21724C13.5508 3.21724 6.34086 -0.249865 4.00564 0.0143712C3.43029 0.0459305 2.86742 0.194429 2.35144 0.450797C1.83546 0.707166 1.37721 1.06601 1.00469 1.5054C0.632175 1.9448 0.35322 2.4555 0.184881 3.00631C0.0165418 3.55712 -0.0376453 4.13645 0.0256278 4.70891C0.0889009 5.28136 0.268309 5.83491 0.552882 6.33571C0.837455 6.8365 1.22122 7.27403 1.68071 7.62155C2.1402 7.96907 2.66577 8.21929 3.2253 8.3569C3.78483 8.49451 4.36655 8.51663 4.93492 8.4219V8.4219Z" transform="translate(62.9089 193.715)" fill="#2974E4"/>
<path d="M9.53909 28.8714C49.7197 40.5086 47.4023 40.2282 92.995 41.0529C99.2353 41.1684 105.845 41.5065 110.855 43.5272C115.865 45.5478 118.325 48.8055 121.761 51.5931C134.537 61.9767 160.72 65.3169 183.598 63.5519C206.476 61.787 227.469 55.9561 249.068 51.5189C286.395 43.8406 329.068 40.3436 365.887 48.7148C369.265 49.4818 372.824 50.3643 376.448 50.0591C384.517 49.3746 386.92 43.8076 392.57 40.624C402.762 34.8508 424.895 36.4426 429.372 28.8714C431.996 24.4343 425.961 19.8817 419.384 16.8549C394.226 5.26726 358.228 3.35384 325.288 5.14354C292.348 6.93323 259.974 11.857 226.886 11.8817C185.64 11.8817 145.787 4.31883 104.943 1.20954C76.6522 -0.93479 45.7787 -0.670902 19.2513 5.66313C-9.50646 12.5003 -0.0898059 15.9755 9.53909 28.8714Z" transform="translate(0 283)" fill="#1052B4"/>
<path d="M203.177 2.30823e-05H17.0716C14.8331 -0.00366001 12.6157 0.433457 10.5462 1.28641C8.47675 2.13936 6.59564 3.39143 5.01035 4.97112C3.42505 6.55082 2.16662 8.42718 1.30694 10.493C0.447255 12.5589 0.00315353 14.7738 0 17.0113V274.734C0.00955196 279.251 1.81327 283.579 5.01459 286.766C8.2159 289.954 12.5527 291.741 17.0716 291.733H203.177C205.415 291.737 207.633 291.3 209.702 290.447C211.772 289.594 213.653 288.342 215.238 286.762C216.823 285.182 218.082 283.306 218.941 281.24C219.801 279.174 220.245 276.959 220.248 274.722V17.0113C220.245 14.7738 219.801 12.5589 218.941 10.493C218.082 8.42718 216.823 6.55082 215.238 4.97112C213.653 3.39143 211.772 2.13936 209.702 1.28641C207.633 0.433457 205.415 -0.00366001 203.177 2.30823e-05Z" transform="translate(82.4 14.289)" fill="url(#paint0_linear)"/>
<path d="M206.974 0H8.01107C3.58668 0 0 3.58493 0 8.00717V277.625C0 282.047 3.58668 285.632 8.01107 285.632H206.974C211.398 285.632 214.985 282.047 214.985 277.625V8.00717C214.985 3.58493 211.398 0 206.974 0Z" transform="translate(85.0236 17.7842)" fill="white"/>
<path d="M187.139 0H6C2.68629 0 0 2.6863 0 6V225.595C0 228.909 2.6863 231.595 6 231.595H187.139C190.452 231.595 193.139 228.909 193.139 225.595V6C193.139 2.68629 190.452 0 187.139 0Z" transform="translate(95.9467 44.8004)" fill="#E6EEFA"/>
<path d="M2.62362 5.2447C4.07261 5.2447 5.24724 4.07063 5.24724 2.62235C5.24724 1.17407 4.07261 0 2.62362 0C1.17463 0 0 1.17407 0 2.62235C0 4.07063 1.17463 5.2447 2.62362 5.2447Z" transform="translate(189.019 28.2615)" fill="#E6EEFA"/>
<path d="M7.86687 15.7261C12.2116 15.7261 15.7337 12.2057 15.7337 7.86305C15.7337 3.52041 12.2116 0 7.86687 0C3.52212 0 0 3.52041 0 7.86305C0 12.2057 3.52212 15.7261 7.86687 15.7261Z" transform="translate(183.776 281.576)" fill="#E6EEFA"/>
<path d="M187 0H6C2.68629 0 0 2.68629 0 6V14H193V6C193 2.68629 190.314 0 187 0Z" transform="translate(96 45)" fill="#AAC1E3"/>
<path d="M2.81915 6C4.37613 6 5.6383 4.65686 5.6383 3C5.6383 1.34315 4.37613 0 2.81915 0C1.26218 0 0 1.34315 0 3C0 4.65686 1.26218 6 2.81915 6Z" transform="translate(101 49)" fill="#F6F7F9"/>
<path d="M2.81915 6C4.37613 6 5.6383 4.65686 5.6383 3C5.6383 1.34315 4.37613 0 2.81915 0C1.26218 0 0 1.34315 0 3C0 4.65686 1.26218 6 2.81915 6Z" transform="translate(108.183 49)" fill="#F6F7F9"/>
<path d="M2.81915 6C4.37613 6 5.6383 4.65686 5.6383 3C5.6383 1.34315 4.37613 0 2.81915 0C1.26218 0 0 1.34315 0 3C0 4.65686 1.26218 6 2.81915 6Z" transform="translate(115.362 49)" fill="#F6F7F9"/>
<path d="M180 0H0V0.894696H180V0Z" transform="translate(102 90)" fill="#AAC1E3"/>
<path d="M180 0H0V0.894696H180V0Z" transform="translate(102 110.775)" fill="#AAC1E3"/>
<path d="M180 0H0V0.894696H180V0Z" transform="translate(102 131.556)" fill="#AAC1E3"/>
<path d="M180 0H0V0.894696H180V0Z" transform="translate(102 152.331)" fill="#AAC1E3"/>
<path d="M180 0H0V0.894696H180V0Z" transform="translate(102 173.105)" fill="#AAC1E3"/>
<path d="M4.45815 8.91198C6.92032 8.91198 8.91631 6.91697 8.91631 4.45599C8.91631 1.99502 6.92032 0 4.45815 0C1.99598 0 0 1.99502 0 4.45599C0 6.91697 1.99598 8.91198 4.45815 8.91198Z" transform="translate(183.8 116)" fill="#0052CC"/>
<path d="M0 3C0 1.34315 1.34315 0 3 0H55C56.6569 0 58 1.34315 58 3V26C58 27.6569 56.6569 29 55 29H13.5523C12.8711 29 12.2102 29.2318 11.6783 29.6574L1.62469 37.7002C0.969931 38.2241 0 37.7579 0 36.9194V3Z" transform="translate(189.26 68.2094)" fill="#AAC1E3"/>
<path d="M37.9788 0H2.02114C0.904897 0 0 0.904897 0 2.02114C0 3.13739 0.904896 4.04229 2.02114 4.04229H37.9788C39.0951 4.04229 40 3.13739 40 2.02114C40 0.904897 39.0951 0 37.9788 0Z" transform="translate(198 76)" fill="#F6F7F9"/>
<path d="M8.96072 0H2.02114C0.904897 0 0 0.904897 0 2.02114C0 3.13739 0.904897 4.04229 2.02114 4.04229H8.96072C10.077 4.04229 10.9819 3.13739 10.9819 2.02114C10.9819 0.904897 10.077 0 8.96072 0Z" transform="translate(198 84.9577)" fill="#F6F7F9"/>
<path d="M14.6542 0H2.02114C0.904897 0 0 0.904897 0 2.02114C0 3.13739 0.904897 4.04229 2.02114 4.04229H14.6542C15.7705 4.04229 16.6754 3.13739 16.6754 2.02114C16.6754 0.904897 15.7705 0 14.6542 0Z" transform="translate(221.325 84.9577)" fill="#F6F7F9"/>
<path d="M5.79215 0H3C1.34315 0 0 1.34315 0 3V22.0905C0 23.7473 1.34315 25.0905 3 25.0905H5.79215C7.449 25.0905 8.79215 23.7473 8.79215 22.0905V3C8.79215 1.34315 7.449 0 5.79215 0Z" transform="translate(133.459 227.003)" fill="#0052CC"/>
<path d="M5.79214 0H3C1.34315 0 0 1.34315 0 3V33.7009C0 35.3577 1.34315 36.7009 3 36.7009H5.79214C7.44899 36.7009 8.79214 35.3577 8.79214 33.7009V3C8.79214 1.34315 7.44899 0 5.79214 0Z" transform="translate(148.948 215.393)" fill="#0052CC"/>
<path d="M5.79215 0H3C1.34315 0 0 1.34315 0 3V43.4416C0 45.0984 1.34315 46.4416 3 46.4416H5.79215C7.449 46.4416 8.79215 45.0984 8.79215 43.4416V3C8.79215 1.34315 7.449 0 5.79215 0Z" transform="translate(164.437 205.652)" fill="#0052CC"/>
<path d="M5.79215 0H3C1.34315 0 0 1.34315 0 3V38.3891C0 40.0459 1.34315 41.3891 3 41.3891H5.79215C7.449 41.3891 8.79215 40.0459 8.79215 38.3891V3C8.79215 1.34315 7.449 0 5.79215 0Z" transform="translate(179.923 210.701)" fill="#0052CC"/>
<path d="M5.79214 0H3C1.34315 0 0 1.34315 0 3V47.1769C0 48.8338 1.34315 50.1769 3 50.1769H5.79214C7.44899 50.1769 8.79214 48.8338 8.79214 47.1769V3C8.79214 1.34315 7.44899 0 5.79214 0Z" transform="translate(195.412 201.917)" fill="#0052CC"/>
<path d="M6.79035 0H2.00179C0.896233 0 0 0.896233 0 2.00179C0 3.10735 0.896233 4.00358 2.00179 4.00358H6.79035C7.89591 4.00358 8.79214 3.10735 8.79214 2.00179C8.79214 0.896233 7.89591 0 6.79035 0Z" transform="translate(116.904 197.913)" fill="#AAC1E3"/>
<path d="M6.79035 0H2.00179C0.896233 0 0 0.896233 0 2.00179C0 3.10735 0.896233 4.00358 2.00179 4.00358H6.79035C7.89591 4.00358 8.79214 3.10735 8.79214 2.00179C8.79214 0.896233 7.89591 0 6.79035 0Z" transform="translate(116.904 205.652)" fill="#AAC1E3"/>
<path d="M6.79035 0H2.00179C0.896233 0 0 0.896233 0 2.00179C0 3.10735 0.896233 4.00358 2.00179 4.00358H6.79035C7.89591 4.00358 8.79214 3.10735 8.79214 2.00179C8.79214 0.896233 7.89591 0 6.79035 0Z" transform="translate(116.904 213.391)" fill="#AAC1E3"/>
<path d="M6.79035 0H2.00179C0.896233 0 0 0.896233 0 2.00179C0 3.10735 0.896233 4.00358 2.00179 4.00358H6.79035C7.89591 4.00358 8.79214 3.10735 8.79214 2.00179C8.79214 0.896233 7.89591 0 6.79035 0Z" transform="translate(116.904 221.134)" fill="#AAC1E3"/>
<path d="M6.79035 0H2.00179C0.896233 0 0 0.896233 0 2.00179C0 3.10735 0.896233 4.00358 2.00179 4.00358H6.79035C7.89591 4.00358 8.79214 3.10735 8.79214 2.00179C8.79214 0.896233 7.89591 0 6.79035 0Z" transform="translate(116.904 228.873)" fill="#AAC1E3"/>
<path d="M6.79035 0H2.00179C0.896233 0 0 0.896233 0 2.00179C0 3.10735 0.896233 4.00358 2.00179 4.00358H6.79035C7.89591 4.00358 8.79214 3.10735 8.79214 2.00179C8.79214 0.896233 7.89591 0 6.79035 0Z" transform="translate(116.904 236.612)" fill="#AAC1E3"/>
<path d="M6.79035 0H2.00179C0.896233 0 0 0.896233 0 2.00179C0 3.10735 0.896233 4.00358 2.00179 4.00358H6.79035C7.89591 4.00358 8.79214 3.10735 8.79214 2.00179C8.79214 0.896233 7.89591 0 6.79035 0Z" transform="translate(116.904 244.355)" fill="#AAC1E3"/>
<path d="M6.79035 0H2.00179C0.896233 0 0 0.896233 0 2.00179C0 3.10735 0.896233 4.00358 2.00179 4.00358H6.79035C7.89591 4.00358 8.79214 3.10735 8.79214 2.00179C8.79214 0.896233 7.89591 0 6.79035 0Z" transform="translate(116.904 252.094)" fill="#AAC1E3"/>
<path d="M6.79036 0H2.00179C0.896233 0 0 0.896233 0 2.00179C0 3.10735 0.896233 4.00358 2.00179 4.00358H6.79036C7.89592 4.00358 8.79215 3.10735 8.79215 2.00179C8.79215 0.896233 7.89592 0 6.79036 0Z" transform="translate(133.458 256.098)" fill="#AAC1E3"/>
<path d="M6.79035 0H2.00179C0.896233 0 0 0.896233 0 2.00179C0 3.10735 0.896233 4.00358 2.00179 4.00358H6.79035C7.89591 4.00358 8.79214 3.10735 8.79214 2.00179C8.79214 0.896233 7.89591 0 6.79035 0Z" transform="translate(148.948 256.098)" fill="#AAC1E3"/>
<path d="M6.79036 0H2.00179C0.896233 0 0 0.896233 0 2.00179C0 3.10735 0.896233 4.00358 2.00179 4.00358H6.79036C7.89592 4.00358 8.79215 3.10735 8.79215 2.00179C8.79215 0.896233 7.89592 0 6.79036 0Z" transform="translate(164.437 256.098)" fill="#AAC1E3"/>
<path d="M6.79036 0H2.00179C0.896233 0 0 0.896233 0 2.00179C0 3.10735 0.896233 4.00358 2.00179 4.00358H6.79036C7.89592 4.00358 8.79215 3.10735 8.79215 2.00179C8.79215 0.896233 7.89592 0 6.79036 0Z" transform="translate(179.923 256.098)" fill="#AAC1E3"/>
<path d="M6.79035 0H2.00179C0.896233 0 0 0.896233 0 2.00179C0 3.10735 0.896233 4.00358 2.00179 4.00358H6.79035C7.89591 4.00358 8.79214 3.10735 8.79214 2.00179C8.79214 0.896233 7.89591 0 6.79035 0Z" transform="translate(195.412 256.098)" fill="#AAC1E3"/>
<path d="M6.79036 0H2.00179C0.896233 0 0 0.896233 0 2.00179C0 3.10735 0.896233 4.00358 2.00179 4.00358H6.79036C7.89592 4.00358 8.79215 3.10735 8.79215 2.00179C8.79215 0.896233 7.89592 0 6.79036 0Z" transform="translate(210.901 256.098)" fill="#AAC1E3"/>
<path d="M6.79033 0H2.00179C0.896233 0 0 0.896233 0 2.00179C0 3.10735 0.896233 4.00358 2.00179 4.00358H6.79033C7.89589 4.00358 8.79213 3.10735 8.79213 2.00179C8.79213 0.896233 7.89589 0 6.79033 0Z" transform="translate(226.387 256.098)" fill="#AAC1E3"/>
<path d="M6.79036 0H2.00179C0.896233 0 0 0.896233 0 2.00179C0 3.10735 0.896233 4.00358 2.00179 4.00358H6.79036C7.89592 4.00358 8.79215 3.10735 8.79215 2.00179C8.79215 0.896233 7.89592 0 6.79036 0Z" transform="translate(241.876 256.098)" fill="#AAC1E3"/>
<path d="M6.79036 0H2.00179C0.896233 0 0 0.896233 0 2.00179C0 3.10735 0.896233 4.00358 2.00179 4.00358H6.79036C7.89592 4.00358 8.79215 3.10735 8.79215 2.00179C8.79215 0.896233 7.89592 0 6.79036 0Z" transform="translate(257.366 256.098)" fill="#AAC1E3"/>
<path d="M5.79215 0H3C1.34315 0 0 1.34315 0 3V27.9597C0 29.6166 1.34315 30.9597 3 30.9597H5.79215C7.449 30.9597 8.79215 29.6166 8.79215 27.9597V3C8.79215 1.34315 7.449 0 5.79215 0Z" transform="translate(210.901 221.134)" fill="#AAC1E3"/>
<path d="M5.79213 0H3C1.34315 0 0 1.34315 0 3V27.9597C0 29.6166 1.34315 30.9597 3 30.9597H5.79213C7.44898 30.9597 8.79213 29.6166 8.79213 27.9597V3C8.79213 1.34315 7.44898 0 5.79213 0Z" transform="translate(226.387 221.134)" fill="#AAC1E3"/>
<path d="M5.79215 0H3C1.34315 0 0 1.34315 0 3V27.9597C0 29.6166 1.34315 30.9597 3 30.9597H5.79215C7.449 30.9597 8.79215 29.6166 8.79215 27.9597V3C8.79215 1.34315 7.449 0 5.79215 0Z" transform="translate(241.876 221.134)" fill="#AAC1E3"/>
<path d="M5.79215 0H3C1.34315 0 0 1.34315 0 3V27.9597C0 29.6166 1.34315 30.9597 3 30.9597H5.79215C7.449 30.9597 8.79215 29.6166 8.79215 27.9597V3C8.79215 1.34315 7.449 0 5.79215 0Z" transform="translate(257.366 221.134)" fill="#AAC1E3"/>
<path d="M86.1429 50.5569C76.6217 45.084 73.0247 43.7268 73.0047 43.7188L72.8124 43.5786C71.774 42.7815 70.9485 41.7404 70.4091 40.5479C70.4091 40.3277 70.4091 40.1115 70.4091 39.8953V39.9594C70.5613 37.0608 72.6242 34.4224 74.5829 32.1204L79.5858 26.2351C80.1564 25.6541 80.5961 24.958 80.8756 24.1933C80.9788 23.7839 81.0246 23.3621 81.0117 22.9401C81.0117 22.768 81.0117 22.5958 81.0117 22.4277C80.9877 20.9664 80.9437 19.5011 80.8916 18.0237C80.8435 16.7466 80.5151 15.1372 79.2373 14.8729C78.5724 14.7368 77.6952 14.977 77.3427 14.4045C77.2245 14.1706 77.1946 13.902 77.2586 13.6478C77.2567 13.6678 77.2567 13.6879 77.2586 13.7079V13.6358C77.5073 12.6499 77.6669 11.6436 77.7352 10.6291C77.7604 10.1135 77.6898 9.59767 77.5269 9.10775C76.7859 6.98585 74.2384 6.11708 71.9833 5.71672C69.7282 5.31636 67.2047 4.97205 65.7907 3.21047C65.3541 2.66599 65.0577 2.0094 64.561 1.51696C63.9086 0.939278 63.1134 0.546687 62.2579 0.379943C59.461 -0.310952 56.5138 -0.05468 53.8783 1.10859C52.7888 1.59303 51.6953 2.24961 50.5016 2.17755C49.308 2.10548 48.1984 1.24472 46.9728 1.03653C44.994 0.70023 43.0994 2.15353 42.126 3.87106C41.5479 4.89266 41.2392 6.04441 41.2288 7.21806C41.2288 7.28212 41.2288 7.35018 41.2288 7.41424C41.1995 8.67594 41.6603 9.89993 42.5146 10.8293C43.3678 11.7141 44.6415 12.3226 44.994 13.4877C45.1382 13.9601 45.1022 14.4726 45.2303 14.953C45.2303 15.013 45.2664 15.0731 45.2864 15.1291L45.2223 15.2132C43.1799 17.8295 42.0741 21.0549 42.082 24.3734C42.1029 27.5927 43.1476 30.7218 45.0651 33.3084C46.9826 35.8951 49.6735 37.8051 52.7487 38.7623C52.7487 38.9104 52.7487 39.0626 52.7487 39.2107C52.7487 41.0283 52.232 42.882 50.6779 44.2472L37.1952 49.6681C37.1952 49.6681 29.068 48.7032 26.136 60.5778C25.6642 62.5493 25.494 64.5808 25.6313 66.6032C25.7394 68.3928 25.4911 71.5477 23.4082 75.6273C20.0716 82.1532 20.8326 97.1346 27.65 98.6199C34.0869 100.021 36.6064 99.4206 36.8628 99.3686V99.6288C36.7586 102.431 35.7372 126.689 32.0241 129.624C30.9987 130.424 31.1909 130.985 32.0241 131.353C32.0241 131.353 32.0241 131.509 32.0001 131.79C31.8879 133.563 31.3151 140.317 28.8317 144.161C25.9517 148.609 26.2521 174.276 26.2521 174.276L24.3175 189.421C24.3175 189.421 25.5191 198.766 24.3175 200.399C23.236 201.852 21.794 236.431 21.5136 243.922H21.3854C20.792 243.958 20.2164 244.138 19.7088 244.447C19.2012 244.756 18.777 245.185 18.4734 245.696C16.8712 248.282 11.3035 253.058 11.3035 253.058C10.1018 254.776 5.61962 256.417 3.25235 257.194C2.93505 257.296 2.62905 257.43 2.3391 257.594C1.45473 258.077 0.74434 258.824 0.30829 259.732C0.154155 260 0.0552463 260.296 0.0174092 260.603C-0.0204279 260.909 0.00355321 261.221 0.0879656 261.518C0.696807 262.999 13.2742 264.036 16.4546 262.555C18.9581 261.386 28.8717 259.852 32.9854 259.252C33.7324 259.157 34.4267 258.817 34.9596 258.285C35.4924 257.753 35.8335 257.06 35.9295 256.313C35.9658 256.053 35.949 255.789 35.8802 255.535C35.8113 255.282 35.6918 255.046 35.5289 254.84C34.7278 253.863 34.3273 251.201 34.155 249.463C34.4895 249.328 34.8015 249.143 35.0803 248.914C34.7426 243.525 35.5156 238.123 37.3515 233.044C40.3836 225.037 41.2929 210.196 40.5559 200.555C40.5559 200.555 49.8006 160.8 57.0747 157.088C57.1868 157.228 60.7157 161.76 61.1644 175.777C61.621 190.018 66.7721 199.362 66.7721 199.362C66.7721 199.362 64.497 223.544 66.7721 232.592L63.796 246.869C63.5797 246.68 63.4395 246.536 63.4395 246.536C63.4395 246.536 63.5276 246.937 63.6518 247.569L63.5877 247.87L63.7159 247.902C64.0523 249.687 64.553 252.798 64.3488 254.624C64.2286 255.661 63.9482 257.086 63.7399 258.483C63.4275 260.681 63.3394 262.811 64.497 263.287C66.3916 264.048 77.5309 265.089 79.4256 262.643C79.8506 262.144 80.1275 261.536 80.2252 260.888C80.3229 260.24 80.2374 259.578 79.9783 258.976C79.8403 258.639 79.6541 258.325 79.4256 258.043C79.4256 258.043 76.4695 253.21 77.3027 249.803C77.3817 249.47 77.3911 249.125 77.3305 248.788C77.2698 248.451 77.1404 248.13 76.9502 247.846C77.0783 246.172 77.7513 238.433 79.5017 231.859C81.3963 224.721 85.3978 209.071 82.4538 198.778C82.3416 198.377 82.2134 197.977 82.0772 197.577C80.3784 191.959 79.812 186.059 80.4109 180.221C79.318 175.236 79.318 170.073 80.4109 165.087C82.2294 156.78 83.4992 148.621 83.4992 148.621C83.4992 148.621 84.5046 137.647 83.6274 130.917L83.5673 130.484L84.048 130.376C84.048 130.376 81.4724 118.954 80.5631 111.688C80.3468 109.97 80.0664 107.796 79.762 105.474C80.6016 105.34 81.4284 105.135 82.2334 104.862C90.3887 102.031 92.9523 76.5201 92.9523 76.5201V68.4329C92.9523 68.4329 95.692 56.0458 86.1429 50.5569ZM25.1786 247.561C24.9263 247.433 24.7781 247.349 24.7781 247.349L25.1786 247.561Z" transform="translate(317.196 58.5491)" fill="url(#paint1_linear)"/>
<path d="M59.1497 72.5027C62.6986 82.7038 58.5569 99.2587 56.6342 106.649C54.7116 114.04 54.1188 122.916 54.1188 122.916C46.5763 124.097 41.1048 122.616 41.1048 122.616L44.2091 107.402C41.99 98.3859 44.2091 74.2883 44.2091 74.2883C44.2091 74.2883 39.1821 64.9759 38.7375 50.7832C38.3009 36.8107 34.8562 32.2987 34.732 32.1586C27.6342 35.8539 18.6097 75.4774 18.6097 75.4774C19.3507 85.086 18.4615 99.8672 15.5054 107.85C13.7125 112.921 12.9578 118.3 13.2863 123.669C12.2529 124.541 10.8149 124.689 9.26079 124.441C5.05098 123.741 0 120.105 0 120.105C0 120.105 1.60221 76.9427 2.80387 75.3132C4.00553 73.6838 2.80387 64.3714 2.80387 64.3714L4.72251 49.2939C4.72251 49.2939 4.43012 23.715 7.238 19.267C9.66535 15.4356 10.2221 8.70557 10.3303 6.93999C10.3303 6.65974 10.3543 6.5036 10.3543 6.5036L14.6322 1.37901C14.6322 1.37901 56.0494 -1.72377 59.1537 1.37901C59.9188 2.1437 60.3874 3.87324 60.6678 6.0552C61.521 12.7612 60.5436 23.699 60.5436 23.699C60.5436 23.699 59.3019 31.8303 57.5275 40.1137C56.4587 45.0828 56.4587 50.2221 57.5275 55.1912C56.9385 61.0122 57.4895 66.8922 59.1497 72.5027V72.5027Z" transform="translate(339.251 183.839)" fill="#474463"/>
<path d="M15.6055 18.2785C13.755 20.7167 2.88399 19.6798 1.03343 18.9231C-0.0961259 18.4547 -0.00801497 16.3328 0.296406 14.1428C0.488671 12.7496 0.773056 11.3403 0.889217 10.2954C1.18563 7.63298 0 2.23614 0 2.23614C0 2.23614 2.44338 4.82246 3.03219 2.23614C3.29255 1.10713 4.20182 0.526612 5.14312 0.23435C6.4112 -0.146318 7.77368 -0.0611249 8.98441 0.474555C10.9031 1.3073 14.1115 3.0849 13.5347 5.48705C12.7336 8.88209 15.6055 13.6984 15.6055 13.6984C15.8281 13.9807 16.0089 14.2935 16.1423 14.6272C16.3957 15.2267 16.4797 15.8841 16.385 16.5279C16.2904 17.1718 16.0208 17.7773 15.6055 18.2785V18.2785Z" transform="translate(380.207 302.889)" fill="#4C4C78"/>
<path opacity="0.1" d="M15.5076 4.13571C13.657 6.57389 2.786 5.53696 0.935443 4.78028C-0.194118 4.31186 -0.106007 2.18996 0.198414 0C1.36402 0.544488 3.35077 1.00089 6.65934 0.692612C7.43284 0.62056 8.21007 0.596495 8.98655 0.620551C11.3397 0.728631 13.6974 0.681832 16.0443 0.480435C16.2986 1.08037 16.3829 1.73859 16.2883 2.38321C16.1936 3.02784 15.9235 3.63409 15.5076 4.13571V4.13571Z" transform="translate(380.305 317.032)" fill="black"/>
<path opacity="0.1" d="M9.3489 46.1613C10.0899 55.7699 9.2007 70.5512 6.24461 78.5343C4.45166 83.6051 3.69703 88.9844 4.02556 94.3525C2.99213 95.2253 1.55415 95.3734 0 95.1252C0.893234 88.8796 4.69448 62.0235 7.14987 40.8005C9.90567 16.6309 22.8836 0 22.8836 0L25.4712 2.84654C18.3654 6.53785 9.3489 46.1613 9.3489 46.1613Z" transform="translate(348.524 213.139)" fill="black"/>
<path d="M30.1389 17.7599L28.3324 26.6278L19.4882 41.4851L8.58117 36.829C8.58117 36.829 -6.23931 21.3071 3.07356 19.0891C4.18924 18.8509 5.24263 18.3818 6.16584 17.7119C7.99637 16.3346 8.56916 14.3288 8.56916 12.3671C8.56916 9.12817 7.05506 6.00538 7.05506 6.00538L26.1334 0C25.3454 2.50583 24.8849 5.10301 24.7635 7.72691C24.6193 12.9316 26.55 15.4779 28.1322 16.6989C28.7244 17.1816 29.4065 17.5422 30.1389 17.7599V17.7599Z" transform="translate(361.236 86.1654)" fill="#FBBEBE"/>
<path opacity="0.1" d="M19.0783 0C18.2903 2.50583 17.8298 5.10302 17.7084 7.72693C17.3616 8.14035 16.9912 8.53336 16.5989 8.90398C14.6297 10.7855 12.1876 12.0991 9.53167 12.7053C6.87579 13.3115 4.10525 13.1877 1.51408 12.3471C1.51408 9.10815 0 5.98536 0 5.98536L19.0783 0Z" transform="translate(368.303 86.1854)" fill="black"/>
<path d="M30.1697 15.0816C30.1689 18.0641 29.2831 20.9795 27.6244 23.4588C25.9656 25.9381 23.6085 27.8699 20.8511 29.01C18.0937 30.1501 15.0599 30.4472 12.1336 29.8637C9.20725 29.2802 6.51979 27.8423 4.41118 25.7319C2.30257 23.6215 0.86753 20.9334 0.287614 18.0077C-0.292303 15.0821 0.0089523 12.0502 1.15326 9.29564C2.29757 6.5411 4.23354 4.18766 6.71624 2.53303C9.19895 0.878395 12.1169 -0.0030904 15.1009 7.7371e-05C17.0832 -0.00628346 19.0472 0.379619 20.8796 1.13553C22.712 1.89144 24.3766 3.00241 25.7774 4.40439C27.1782 5.80637 28.2875 7.47162 29.0414 9.30415C29.7952 11.1367 30.1787 13.1002 30.1697 15.0816V15.0816Z" transform="translate(359.399 68.6656)" fill="#FBBEBE"/>
<path opacity="0.1" d="M30.1389 1.04093L28.3324 9.90887L19.4882 24.7662L8.58117 20.11C8.58117 20.11 -6.23931 4.58811 3.07356 2.37013C4.18924 2.13195 5.24263 1.6628 6.16584 0.992894C4.48352 5.61703 11.4291 15.2336 11.4291 15.2336C12.2302 16.4347 14.0928 15.674 14.0928 15.674C18.563 15.0014 26.8023 2.13791 28.1442 0C28.7345 0.474158 29.4123 0.82783 30.1389 1.04093V1.04093Z" transform="translate(361.236 102.884)" fill="black"/>
<path opacity="0.1" d="M50.3375 6.0552C47.7139 6.65173 33.1818 9.87062 27.6702 9.0659C21.6098 8.1771 9.81754 7.58856 9.81754 7.58856C9.81754 7.58856 2.31119 7.98892 0 6.93999C0 6.65973 0.0240322 6.5036 0.0240322 6.5036L4.30194 1.37901C4.30194 1.37901 45.7192 -1.72377 48.8235 1.37901C49.5885 2.13569 50.0571 3.86524 50.3375 6.0552Z" transform="translate(349.577 183.863)" fill="black"/>
<path d="M33.3995 15.5179C33.3995 15.5179 25.5967 4.70821 28.5368 0.508451L15.3546 5.9093C15.3546 5.9093 7.41961 4.94844 4.53963 16.783C4.07993 18.7496 3.91391 20.7733 4.04696 22.7884C4.15111 24.574 3.91076 27.7168 1.87595 31.7805C-1.38055 38.2863 -0.639519 53.2157 6.01768 54.697C12.6749 56.1783 15.0381 55.4336 15.0381 55.4336C15.0381 55.4336 14.1529 82.4899 10.3076 85.5927C6.4623 88.6954 20.1091 87.9588 20.1091 87.9588C20.1091 87.9588 31.9014 88.5513 37.9658 89.4361C44.0302 90.3209 61.0377 86.3333 61.0377 86.3333C61.0377 86.3333 58.5222 74.9471 57.637 67.7046C56.7518 60.4621 54.6769 45.0363 54.6769 45.0363L69.7657 24.618C69.7657 24.618 72.4254 12.275 63.1085 6.80609C53.7917 1.3372 50.2908 0 50.2908 0C50.2908 0 40.9419 15.2136 36.0632 15.9623C36.0632 15.9623 34.2086 16.707 33.3995 15.5179Z" transform="translate(339.265 103.041)" fill="#4379C8"/>
<path opacity="0.1" d="M2.51546 0C2.51546 0 2.36727 4.88037 3.25249 6.80609C4.13771 8.73182 7.39422 19.3733 7.39422 19.3733H0C0 19.3733 4.00553 15.0855 3.6971 13.0157C3.38867 10.9458 2.51546 0 2.51546 0Z" transform="translate(352.846 122.846)" fill="black"/>
<path d="M23.5806 20.7226C23.5806 20.7226 7.246 16.719 5.7239 13.3279C4.2018 9.9369 0 2.32207 0 2.32207L1.72237 0L9.66936 6.23358C9.66936 6.23358 19.1344 13.7723 23.5726 14.513C28.0107 15.2537 23.5806 20.7226 23.5806 20.7226Z" transform="translate(353.671 138.937)" fill="#FBBEBE"/>
<path opacity="0.05" d="M23.5806 20.7226C23.5806 20.7226 7.246 16.719 5.7239 13.3279C4.2018 9.9369 0 2.32207 0 2.32207L1.72237 0L9.66936 6.23358C9.66936 6.23358 19.1344 13.7723 23.5726 14.513C28.0107 15.2537 23.5806 20.7226 23.5806 20.7226Z" transform="translate(353.671 138.937)" fill="black"/>
<path d="M29.5088 0.0756383V8.93157H28.0828C21.0457 8.93292 14.1246 10.724 7.971 14.1362L5.30332 15.6175L4.58632 16.0179L0 5.69666L4.28991 1.85322H4.51021C5.55966 1.95331 10.0979 2.33366 12.0206 1.68507C13.8471 1.06452 16.1142 -0.901241 21.4937 0.484C24.1453 1.16061 26.4085 4.13127 28.98 3.20244L29.5088 0.0756383Z" transform="translate(361.866 140.366)" fill="#FBBEBE"/>
<path opacity="0.1" d="M32.2064 10.0592L35.1665 13.3822V21.4414C35.1665 21.4414 32.651 46.8682 24.664 49.6787C16.6769 52.4892 2.42122 48.0493 2.42122 48.0493C2.42122 48.0493 -1.26388 38.2925 0.458496 37.704C2.18088 37.1155 15.6795 33.5483 15.6795 33.5483C15.6795 33.5483 15.4913 18.6309 18.4473 14.1949C18.4473 14.1949 16.5247 0.302507 23.1819 0.00624156C29.8391 -0.290024 32.2064 10.0592 32.2064 10.0592Z" transform="translate(373.44 114.268)" fill="black"/>
<path d="M32.2227 10.0592L35.1828 13.3822V21.4414C35.1828 21.4414 32.6754 46.8682 24.6643 49.6787C16.6532 52.4892 2.41758 48.0493 2.41758 48.0493C2.41758 48.0493 -1.26351 38.2925 0.458873 37.704C2.18125 37.1155 15.6799 33.5483 15.6799 33.5483C15.6799 33.5483 15.4876 18.6309 18.4477 14.1949C18.4477 14.1949 16.5251 0.302507 23.1823 0.00624156C29.8395 -0.290024 32.2227 10.0592 32.2227 10.0592Z" transform="translate(373.868 114.268)" fill="#4379C8"/>
<path opacity="0.1" d="M22.9477 21.484C23.0078 20.5111 23.0278 19.4822 22.6112 18.6054C22.1947 17.7286 21.2173 17.028 20.264 17.2522C18.9983 17.5484 18.4535 19.1939 17.2118 19.5903C16.1663 19.9226 15.0248 19.1899 14.5281 18.205C14.0314 17.2201 14.0154 16.0831 14.0113 15.0022C14.0113 13.7691 14.0113 12.5319 14.0113 11.2988C14.0113 9.95364 13.9673 8.49634 13.1381 7.4474C12.1087 6.13022 9.68539 5.55771 8.06715 5.60975C6.98922 5.62227 5.95543 6.03958 5.17113 6.7788C4.30594 7.51145 3.30456 8.05594 2.12293 7.85976C1.63205 7.78541 1.17224 7.57377 0.796584 7.24931C0.420932 6.92485 0.144775 6.50079 0 6.02612V5.97808C1.25758 4.31738 2.84576 2.93511 4.6644 1.91842C6.48305 0.901726 8.49272 0.272671 10.5667 0.0709118C12.6407 -0.130847 14.734 0.0990616 16.7146 0.74615C18.6953 1.39324 20.5203 2.44347 22.0747 3.83063C23.6291 5.21778 24.8791 6.91177 25.7458 8.8058C26.6126 10.6998 27.0774 12.7528 27.1109 14.8353C27.1443 16.9178 26.7458 18.9846 25.9403 20.9055C25.1349 22.8264 23.94 24.5597 22.431 25.996C22.6879 24.5029 22.8604 22.9965 22.9477 21.484Z" transform="translate(362.483 68.669)" fill="black"/>
<path d="M6.01719 16.6114C5.52601 16.5362 5.06605 16.3239 4.69043 15.9987C4.31481 15.6736 4.0388 15.2489 3.89424 14.7737C3.77007 14.2973 3.80213 13.7888 3.66194 13.3124C3.31746 12.1514 2.05972 11.5468 1.25862 10.666C-0.407686 8.89646 -0.299537 5.98986 0.882095 3.85995C1.83541 2.14642 3.68597 0.701126 5.61263 1.03342C6.81429 1.24161 7.8437 2.09438 9.05738 2.17045C10.2711 2.24651 11.2885 1.58992 12.3539 1.10549C14.9181 -0.0552644 17.8007 -0.310778 20.5292 0.380843C21.3679 0.549228 22.1456 0.940648 22.7803 1.51385C23.2097 2.0546 23.6108 2.61719 23.982 3.19936C25.3639 4.95694 27.8313 5.30125 30.0303 5.6976C32.2294 6.09396 34.7128 6.96274 35.4378 9.07663C35.9145 10.4779 35.4378 11.9992 35.1774 13.4565C35.0847 13.7535 35.1047 14.0742 35.2335 14.3574C35.578 14.9259 36.4352 14.6897 37.0841 14.8258C38.3338 15.086 38.6543 16.6914 38.6863 17.9646C38.7397 19.4219 38.7798 20.8792 38.8065 22.3365C38.8807 23.0122 38.7934 23.6959 38.5517 24.3314C38.3101 24.9668 37.9211 25.5359 37.4166 25.9918L32.5338 31.857C30.3668 34.4594 28.0676 37.4901 28.5042 40.8451C27.4788 41.3055 26.2611 40.4167 25.9247 39.3437C25.5882 38.2708 25.8606 37.1177 26.0849 36.0167C26.4801 34.1133 26.7385 32.1839 26.858 30.2436C26.9181 29.2667 26.9381 28.2418 26.5215 27.365C26.1049 26.4882 25.1276 25.7636 24.1743 26.0078C22.9085 26.3041 22.3638 27.9495 21.122 28.3459C20.0806 28.6782 18.935 27.9455 18.4383 26.9606C17.9416 25.9758 17.9256 24.8387 17.9216 23.7578V20.0505C17.9216 18.7093 17.8776 17.2479 17.0484 16.199C16.019 14.8818 13.5956 14.3093 11.9774 14.3614C10.8996 14.3747 9.86613 14.7919 9.08141 15.5304C8.20019 16.2631 7.19882 16.8035 6.01719 16.6114Z" transform="translate(358.581 59.461)" fill="#472727"/>
<path opacity="0.1" d="M0 0L4.6304 19.017C4.6304 19.017 8.28344 18.997 0 0Z" transform="translate(368.007 122.478)" fill="black"/>
<path opacity="0.1" d="M4.24541 0C4.24541 0 -1.81896 9.9289 0.548315 20.1901L1.67788 20.2742C1.67788 20.2742 -0.340922 15.5219 4.24541 0Z" transform="translate(379.587 119.299)" fill="black"/>
<path opacity="0.1" d="M0 0.527657C0 0.527657 7.44626 -1.93455 7.98701 3.77857C7.98701 3.77857 6.58109 -0.136938 0 0.527657Z" transform="translate(387.678 174.95)" fill="black"/>
<path opacity="0.1" d="M12.7176 0C12.7176 0 11.2395 10.3493 13.9192 14.489C13.9192 14.489 8.50375 16.707 0.901245 16.2626L0 0H12.7176Z" transform="translate(353.438 142.676)" fill="black"/>
<path opacity="0.1" d="M5.30332 13.7643L4.58632 14.1647L0 3.84344L4.28991 0H4.51021C4.44212 0.496445 3.24848 9.38441 5.30332 13.7643Z" transform="translate(361.866 142.216)" fill="black"/>
<path d="M16.9915 0C16.9915 0 15.5134 10.3453 18.1931 14.485C18.1931 14.485 12.7776 16.703 5.17514 16.2586L0 0H16.9915Z" transform="translate(349.164 142.216)" fill="#4379C8"/>
<path d="M35.067 12.3587C34.9813 13.096 34.6525 13.7838 34.1325 14.3137C33.6125 14.8436 32.9309 15.1854 32.1951 15.2854C28.1895 15.8859 18.5042 17.4153 16.0608 18.5763C12.9565 20.0537 0.679528 19.0207 0.0867096 17.5434C-0.080376 16.9461 -0.00406099 16.307 0.29899 15.7658C0.726349 14.8623 1.42693 14.1158 2.30176 13.6319C2.58415 13.4693 2.88204 13.3352 3.191 13.2315C5.50219 12.4588 9.86822 10.8294 11.0499 9.10784C11.0499 9.10784 16.4934 4.34757 18.0435 1.77327C18.3359 1.26776 18.7483 0.841942 19.2443 0.533341C19.7402 0.22474 20.3045 0.0428446 20.8874 0.00369194C22.1852 -0.0563618 23.6272 0.596226 24.216 3.43477C24.216 3.43477 31.3138 7.48239 33.2325 3.93121C33.2325 3.93121 33.5289 9.3841 34.7065 10.8734C34.8622 11.0847 34.9742 11.3249 35.0361 11.5799C35.098 11.8349 35.1085 12.0996 35.067 12.3587V12.3587Z" transform="translate(318.295 302.515)" fill="#4C4C78"/>
<path opacity="0.1" d="M35.067 1.47732C34.9813 2.2146 34.6525 2.90238 34.1325 3.43227C33.6125 3.96216 32.9309 4.30402 32.1951 4.40394C28.1895 5.00448 18.5042 6.53386 16.0608 7.6949C12.9565 9.17223 0.679528 8.13929 0.0867096 6.66197C-0.080376 6.06469 -0.00406099 5.42557 0.29899 4.88438C0.726349 3.98087 1.42693 3.23441 2.30176 2.75046C4.30452 4.07965 8.74665 5.37681 18.5202 3.85145C27.841 2.39815 32.4554 0.972871 34.7065 0C34.8612 0.210293 34.9726 0.449105 35.0345 0.702656C35.0964 0.956207 35.1074 1.21948 35.067 1.47732V1.47732Z" transform="translate(318.295 313.397)" fill="black"/>
<g opacity="0.1">
<path opacity="0.1" d="M0.041984 3.43108V3.35901C0.254277 2.25001 0.57072 1.10499 0.498621 0C0.403689 0.906902 0.251165 1.80686 0.041984 2.69442C-0.0139947 2.93678 -0.0139947 3.18871 0.041984 3.43108V3.43108Z" transform="translate(393.684 69.7026)" fill="black"/>
<path opacity="0.1" d="M26.509 20.4863C26.7422 21.0195 26.8661 21.594 26.8735 22.1759C26.9421 21.3733 26.8171 20.566 26.509 19.8217C26.1084 18.937 25.1191 18.2403 24.1658 18.4645C22.9 18.7608 22.3553 20.4063 21.1135 20.8026C20.0681 21.1349 18.9265 20.4023 18.4258 19.4174C17.9251 18.4325 17.9171 17.2955 17.9131 16.2145C17.9131 14.9774 17.9131 13.7443 17.9131 12.5072C17.9131 11.166 17.8691 9.70469 17.0399 8.65575C16.0105 7.33857 13.5831 6.76606 11.9689 6.8181C10.891 6.83063 9.8572 7.24794 9.0729 7.98715C8.2037 8.72381 7.20633 9.2643 6.0247 9.07213C5.53351 8.99699 5.07359 8.7846 4.69796 8.45946C4.32234 8.13431 4.04633 7.70966 3.90177 7.23448C3.7776 6.75805 3.80964 6.2496 3.66944 5.77317C3.32096 4.61213 2.06723 4.00759 1.26612 3.1268C0.487267 2.26876 0.044866 1.1583 0.0204073 0C-0.0413214 0.683452 0.0373457 1.3723 0.251562 2.02427C0.465777 2.67625 0.811017 3.27759 1.26612 3.7914C2.09927 4.67218 3.33698 5.28073 3.66944 6.44177C3.80964 6.91419 3.7776 7.42265 3.90177 7.89907C4.04633 8.37425 4.32234 8.79891 4.69796 9.12405C5.07359 9.4492 5.53351 9.66158 6.0247 9.73672C7.22636 9.92889 8.2037 9.38841 9.0729 8.65175C9.8572 7.91253 10.891 7.49522 11.9689 7.4827C13.5711 7.43065 16.0105 8.00717 17.0399 9.32035C17.8691 10.3773 17.9091 11.8306 17.9131 13.1718C17.9131 14.4089 17.9131 15.642 17.9131 16.8791C17.9131 17.9761 17.9131 19.1171 18.4258 20.082C18.9385 21.0468 20.0681 21.7995 21.1135 21.4672C22.3553 21.0669 22.9 19.4254 24.1658 19.1291C25.1311 18.9089 26.0964 19.6016 26.509 20.4863Z" transform="translate(358.581 66.4838)" fill="black"/>
<path opacity="0.1" d="M10.2225 0.936837C9.95254 1.69639 9.52376 2.38972 8.96472 2.97066C7.33848 4.92708 5.71089 6.88217 4.08198 8.83592C2.02714 11.3061 -0.151889 14.1647 0.00833221 17.3155C0.156537 14.4249 2.17134 11.7946 4.08198 9.5005L8.96472 3.63926C9.52298 3.05618 9.95161 2.36172 10.2225 1.60143C10.3434 1.07677 10.3865 0.537205 10.3506 0C10.3466 0.316356 10.3035 0.631005 10.2225 0.936837V0.936837Z" transform="translate(387.024 81.9617)" fill="black"/>
<path opacity="0.1" d="M0.158772 0.800717C0.0798257 0.540298 0.0314404 0.271589 0.014579 0C-0.0274037 0.490498 0.0214744 0.984535 0.158772 1.45731C0.495237 2.53027 1.71693 3.41506 2.74235 2.95465C2.71431 2.73845 2.69828 2.52226 2.69027 2.30607C1.65684 2.73045 0.471204 1.85766 0.158772 0.800717Z" transform="translate(384.355 97.4835)" fill="black"/>
</g>
<path opacity="0.1" d="M3.52938 0C3.52938 0 0.112665 2.13391 0.00451515 3.35501C-0.103634 4.5761 1.76694 2.4662 1.76694 2.4662L3.52938 0Z" transform="translate(393.245 239.042)" fill="black"/>
<path opacity="0.1" d="M6.1287 0C4.94154 0.987854 3.46566 1.56386 1.92289 1.64146C-0.628633 1.75356 -0.416337 5.08053 1.24996 4.07963C2.91627 3.07873 6.1287 0 6.1287 0Z" transform="translate(392.003 255.389)" fill="black"/>
<path opacity="0.1" d="M2.96807 0C2.96807 0 1.32984 8.04722 0 6.49383Z" transform="translate(395.801 257.523)" fill="black"/>
<path d="M180 21.8826C174.011 26.2523 167.85 29.6525 160.985 30.9486C138.295 35.1796 116.977 21.1536 106.28 12.4203C94.4045 2.72608 78.7944 -0.753353 64.5021 3.08252C52.0363 6.44165 42.777 14.2591 32.946 22.5591L32.7751 22.7034C23.3415 30.6964 13.5966 38.9472 0 44.4399V42.7622C13.0641 37.3345 22.5642 29.3192 31.7693 21.5256L31.7798 21.5167C41.7797 13.0501 51.2202 5.05732 64.0966 1.58692C78.8646 -2.38842 95.0048 1.20722 107.27 11.2269C117.757 19.7897 138.638 33.5367 160.696 29.4297C167.621 28.1364 173.874 24.5449 180 19.9582V21.8826Z" transform="translate(102 117.892)" fill="#0052CC"/>
</g>
<defs>
<linearGradient id="paint0_linear" x2="1" gradientUnits="userSpaceOnUse" gradientTransform="translate(-35.8275 291.745) scale(291.887 291.745) rotate(-90)">
<stop stop-color="#808080" stop-opacity="0.25"/>
<stop offset="0.54" stop-color="#808080" stop-opacity="0.12"/>
<stop offset="1" stop-color="#808080" stop-opacity="0.1"/>
</linearGradient>
<linearGradient id="paint1_linear" x2="1" gradientUnits="userSpaceOnUse" gradientTransform="translate(57905.2 221281) scale(61563.7 174282) rotate(-90)">
<stop stop-color="#808080" stop-opacity="0.25"/>
<stop offset="0.54" stop-color="#808080" stop-opacity="0.12"/>
<stop offset="1" stop-color="#808080" stop-opacity="0.1"/>
</linearGradient>
<clipPath id="clip0">
<rect width="440" height="347" fill="white"/>
</clipPath>
</defs>
</svg>
