<svg width="400" height="310" viewBox="0 0 400 310" fill="none" xmlns="http://www.w3.org/2000/svg">
<g clip-path="url(#clip0)">
<path d="M12.3359 211.96C7.75194 213.534 2.18819 216.745 3.12598 221.849C3.59488 224.436 5.6874 226.354 7.67496 227.973C16.1646 234.873 19.9079 238.96 29.8565 243.5C34.6049 245.659 36.9133 249.018 40.5 253C44.0867 256.982 45.8348 263.633 47 269C49.7345 281.71 40 293 57.2448 306.944C71.5601 307.217 87.4115 306.894 97.5417 296.564C103.606 290.377 106.857 281.2 113.988 276.411C118.743 273.218 124.605 272.426 130.266 271.76C157.063 268.621 183.999 266.721 211.074 266.06C222.418 265.783 234.011 265.685 244.603 261.724C255.195 257.762 264.811 249.104 266.963 237.364C267.295 235.556 267.512 233.561 268.748 232.299C269.85 231.167 271.502 230.897 273.045 230.697L366.085 218.077C371.18 217.376 376.453 216.63 380.743 213.745C384.893 210.94 387.693 206.46 390.37 202.093C396.504 192.095 402.869 180.008 398.621 168.577C395.223 159.442 386.09 154.18 377.363 150.913C368.636 147.646 359.241 145.35 352.148 138.946C341.356 129.201 338.963 113.023 335.922 98.5073C333.17 85.362 329.307 72.4752 324.375 59.9861C320.022 49.0001 314.72 38.1718 306.819 29.6221C298.918 21.0724 288.046 15.0115 276.981 15.4461C262.53 16.021 249.817 27.305 235.341 25.9028C223.114 24.7285 213.166 14.9133 202.158 8.80687C182.615 -2.04244 159.548 -1.08896 138.164 2.29378C115.489 5.87282 92.6743 12.137 74.3034 26.2253C70.1044 29.4503 66.0873 33.1731 63.6203 38.0246C59.8412 45.4666 60.1666 54.5352 58.2736 62.8045C50.6453 96.1061 9.74649 109.998 1.33788 143.058C-1.65044 154.794 0.561059 167.522 6.04432 178.368C11.9405 190.045 23.7853 195.022 29.8565 205.044C25.7974 208.756 17.7107 210.113 12.3359 211.96Z" fill="#1862D1"/>
<path d="M0 0V9.59786V247.294H177.55V9.59786V0H0Z" transform="translate(99.9492 20.2731)" fill="url(#paint0_linear)"/>
<path d="M168 0H6C2.68629 0 0 2.68629 0 6V16H174V6C174 2.68629 171.314 0 168 0Z" transform="translate(102 22)" fill="#AAC1E3"/>
<path d="M174 0H0V221C0 224.314 2.68629 227 6 227H168C171.314 227 174 224.314 174 221V0Z" transform="translate(102 38)" fill="#F6F7F9"/>
<path d="M3.0993 6C4.81099 6 6.19859 4.65686 6.19859 3C6.19859 1.34314 4.81099 0 3.0993 0C1.3876 0 0 1.34314 0 3C0 4.65686 1.3876 6 3.0993 6Z" transform="translate(108 27)" fill="#F6F7F9"/>
<path d="M3.0993 6C4.81099 6 6.19859 4.65686 6.19859 3C6.19859 1.34314 4.81099 0 3.0993 0C1.3876 0 0 1.34314 0 3C0 4.65686 1.3876 6 3.0993 6Z" transform="translate(116.401 27)" fill="#F6F7F9"/>
<path d="M3.0993 6C4.81099 6 6.19859 4.65686 6.19859 3C6.19859 1.34314 4.81099 0 3.0993 0C1.3876 0 0 1.34314 0 3C0 4.65686 1.3876 6 3.0993 6Z" transform="translate(124.801 27)" fill="#F6F7F9"/>
<path d="M138 0H3C1.34315 0 0 1.34315 0 3V10C0 11.6569 1.34315 13 3 13H138C139.657 13 141 11.6569 141 10V3C141 1.34315 139.657 0 138 0Z" transform="translate(118 49)" fill="#E6EEFA"/>
<path d="M34 0H0V13H34C35.6569 13 37 11.6569 37 10V3C37 1.34315 35.6569 0 34 0Z" transform="translate(222 49)" fill="#0052CC"/>
<path d="M135.172 0H6C2.68629 0 0 2.68629 0 6V44.6499C0 47.9636 2.68629 50.6499 6 50.6499H135.172C138.486 50.6499 141.172 47.9636 141.172 44.6499V6C141.172 2.68629 138.486 0 135.172 0Z" transform="translate(118.138 71.3262)" fill="#E6EEFA"/>
<path d="M79.2305 0H2.19965C0.984819 0 0 0.984819 0 2.19965C0 3.41449 0.984818 4.39931 2.19965 4.39931H79.2305C80.4453 4.39931 81.4301 3.41449 81.4301 2.19965C81.4301 0.984819 80.4453 0 79.2305 0Z" transform="translate(157.756 89.7858)" fill="#AAC1E3"/>
<path d="M40.0463 0H2.19965C0.984819 0 0 0.984819 0 2.19965C0 3.41449 0.98482 4.39931 2.19966 4.39931H40.0463C41.2612 4.39931 42.246 3.41449 42.246 2.19965C42.246 0.984819 41.2612 0 40.0463 0Z" transform="translate(157.756 99.1172)" fill="#AAC1E3"/>
<path d="M19.6208 0H3.37922C1.51293 0 0 1.51293 0 3.37922C0 5.24551 1.51293 6.75844 3.37922 6.75844H19.6208C21.4871 6.75844 23 5.24551 23 3.37922C23 1.51293 21.4871 0 19.6208 0Z" transform="translate(222 104)" fill="#0052CC"/>
<path d="M7.9817 15.9918C12.3899 15.9918 15.9634 12.4119 15.9634 7.99588C15.9634 3.57988 12.3899 0 7.9817 0C3.57353 0 0 3.57988 0 7.99588C0 12.4119 3.57353 15.9918 7.9817 15.9918Z" transform="translate(133.187 88.6535)" fill="#AAC1E3"/>
<path d="M135.172 0H6C2.68629 0 0 2.68629 0 6V44.6499C0 47.9636 2.68629 50.6499 6 50.6499H135.172C138.486 50.6499 141.172 47.9636 141.172 44.6499V6C141.172 2.68629 138.486 0 135.172 0Z" transform="translate(118.138 136.173)" fill="#E6EEFA"/>
<path d="M79.2305 0H2.19966C0.984821 0 0 0.984821 0 2.19966C0 3.4145 0.98482 4.39932 2.19966 4.39932H79.2305C80.4453 4.39932 81.4301 3.4145 81.4301 2.19966C81.4301 0.984821 80.4453 0 79.2305 0Z" transform="translate(157.756 154.633)" fill="#AAC1E3"/>
<path d="M40.0463 0H2.19966C0.984821 0 0 0.984821 0 2.19966C0 3.4145 0.984822 4.39932 2.19966 4.39932H40.0463C41.2612 4.39932 42.246 3.4145 42.246 2.19966C42.246 0.984821 41.2612 0 40.0463 0Z" transform="translate(157.756 163.964)" fill="#AAC1E3"/>
<path d="M19.6208 0H3.37921C1.51292 0 0 1.51292 0 3.37921C0 5.2455 1.51292 6.75842 3.37921 6.75842H19.6208C21.4871 6.75842 23 5.2455 23 3.37921C23 1.51292 21.4871 0 19.6208 0Z" transform="translate(222 169)" fill="#0052CC"/>
<path d="M7.9817 15.9918C12.3899 15.9918 15.9634 12.4119 15.9634 7.99588C15.9634 3.57988 12.3899 0 7.9817 0C3.57353 0 0 3.57988 0 7.99588C0 12.4119 3.57353 15.9918 7.9817 15.9918Z" transform="translate(133.187 153.5)" fill="#AAC1E3"/>
<path d="M135.172 0H6C2.68629 0 0 2.68629 0 6V44.6499C0 47.9636 2.68629 50.6499 6 50.6499H135.172C138.486 50.6499 141.172 47.9636 141.172 44.6499V6C141.172 2.68629 138.486 0 135.172 0Z" transform="translate(118.138 201.02)" fill="#E6EEFA"/>
<path d="M79.2305 0H2.19965C0.984819 0 0 0.984819 0 2.19965C0 3.41449 0.984818 4.39931 2.19965 4.39931H79.2305C80.4453 4.39931 81.4301 3.41449 81.4301 2.19965C81.4301 0.984819 80.4453 0 79.2305 0Z" transform="translate(157.756 219.48)" fill="#AAC1E3"/>
<path d="M40.0463 0H2.19967C0.984824 0 0 0.984824 0 2.19967C0 3.41451 0.984824 4.39933 2.19967 4.39933H40.0463C41.2612 4.39933 42.246 3.41451 42.246 2.19967C42.246 0.984824 41.2612 0 40.0463 0Z" transform="translate(157.756 228.811)" fill="#AAC1E3"/>
<path d="M19.6208 0H3.37921C1.51292 0 0 1.51292 0 3.37921C0 5.2455 1.51292 6.75842 3.37921 6.75842H19.6208C21.4871 6.75842 23 5.2455 23 3.37921C23 1.51292 21.4871 0 19.6208 0Z" transform="translate(222 236)" fill="#0052CC"/>
<path d="M7.9817 15.9918C12.3899 15.9918 15.9634 12.4119 15.9634 7.99588C15.9634 3.57988 12.3899 0 7.9817 0C3.57353 0 0 3.57988 0 7.99588C0 12.4119 3.57353 15.9918 7.9817 15.9918Z" transform="translate(133.187 218.347)" fill="#AAC1E3"/>
<path d="M4.7045 94.1951C3.35031 100.368 0.907858 107.975 0.907858 107.975C3.32231 110.797 13.8549 111.302 13.8549 111.302L13.8724 111.281H14.0369C14.1104 111.67 14.1944 112.045 14.2958 112.402C14.2772 112.755 14.2597 113.113 14.2434 113.475C14.0932 113.897 14.0417 114.348 14.0929 114.793C14.1135 114.892 14.1392 114.991 14.1699 115.087C13.9179 120.675 13.7395 126.634 13.8934 130.077C13.8944 131.052 13.9941 132.024 14.1909 132.979C14.3731 133.708 14.4763 134.454 14.4988 135.205C14.6703 140.242 13.449 148.704 13.449 148.704C13.449 148.704 13.4805 148.82 13.498 148.88C13.477 149.023 13.463 149.108 13.463 149.108C13.5692 149.449 13.6292 149.802 13.6415 150.159C13.7325 154.408 11.3005 163.652 11.3005 163.652C11.3005 163.652 9.33396 177.866 9.6139 183.282C9.623 183.715 9.65454 184.146 9.70838 184.576C10.3102 189.08 11.1081 201.657 11.1081 201.657C11.2476 201.865 11.4007 202.063 11.5665 202.25C11.4965 202.53 11.4125 202.814 11.3215 203.095C10.3801 205.93 9.98241 208.917 10.1493 211.9C10.1738 212.251 10.2018 212.633 10.2368 213.019C10.6392 217.66 21.8471 214.771 22.5855 214.231C22.8374 214.046 22.659 212.363 22.3125 210.228L33.8599 213.085C33.8599 213.085 42.0481 214.298 45.9427 213.085C49.8373 211.872 49.7009 208.528 44.1301 207.978C40.2285 207.599 37.1317 203.961 35.6025 201.812C36.1939 200.196 40.6274 187.93 41.4427 180.337C41.9703 175.432 42.8343 170.569 44.0286 165.783L44.8999 154.485L46.4466 147.825L48.2907 139.019C50.3727 132.562 51.0096 121.769 51.0096 121.769L52.6192 111.179C52.8435 110.028 52.9687 108.86 52.9936 107.687C54.503 107.997 55.9928 108.397 57.4551 108.883C59.9746 106.92 56.4054 88.0045 56.4054 88.0045C56.4054 88.0045 54.6872 76.058 53.2316 65.1666C56.5663 64.6653 60.181 65.4505 60.181 65.4505L81.3267 65.9168C81.766 65.3397 82.1458 64.7196 82.4605 64.0659H83.3668C83.4791 63.9093 83.5675 63.7368 83.6292 63.5541L84.0036 63.6242C85.3782 63.9425 86.7296 64.3535 88.0487 64.8546C88.0487 64.8546 94.7182 65.6609 93.7104 58.6535C92.9616 53.4304 87.027 55.3269 84.0596 56.6239L83.6852 56.7956C83.6572 56.5993 83.6397 56.4872 83.6397 56.4872L82.6844 56.6624C82.6253 56.5166 82.5587 56.3738 82.485 56.2348C82.485 56.2348 72.1133 55.8316 63.7047 54.5697C57.7246 53.6723 53.2071 50.2475 51.0831 48.3476C49.6099 40.8564 45.3304 38.5814 45.3304 38.5814C42.9544 38.4622 40.8129 37.4141 39.4972 36.6044C39.0216 36.3199 38.5656 36.0037 38.1325 35.6579L37.9015 35.7911L37.8735 35.7666C39.2977 34.4415 40.7744 33.2251 42.0726 32.2051L42.6569 31.7529C44.7 31.5525 46.6665 30.8691 48.3946 29.7591C50.1228 28.649 51.5632 27.1439 52.5976 25.3676C53.6319 23.5912 54.2306 21.5942 54.3445 19.5409C54.4584 17.4875 54.0841 15.4364 53.2526 13.5562C53.1966 13.43 53.1301 13.3038 53.0706 13.1811C53.7207 13.109 54.3276 12.8198 54.7935 12.3601C55.2595 11.9003 55.5573 11.2967 55.639 10.6467C55.7685 9.17789 54.7572 7.61447 55.4186 6.29643C55.5401 6.10088 55.6454 5.89571 55.7335 5.68298C55.7883 5.48223 55.805 5.27293 55.7825 5.06602C55.7337 4.44525 55.5522 3.84225 55.2503 3.29791C54.9484 2.75357 54.5332 2.28062 54.0329 1.91114C52.5317 0.820949 51.1985 1.37481 49.5574 1.28016C47.6608 1.17149 45.7817 0.712279 43.9132 0.403801C41.7681 0.0532586 39.5706 -0.185111 37.4291 0.18997C35.2876 0.565051 33.1916 1.61668 31.9494 3.40445C31.4175 4.16863 31.0571 5.04148 30.5497 5.8302C29.9793 6.74161 29.241 7.53034 28.5866 8.37865C27.4844 9.80536 26.5921 11.516 26.6796 13.3178C26.7285 14.3379 27.089 15.3194 27.1589 16.3395C27.1623 17.29 27.0921 18.2393 26.949 19.1789C26.8407 20.3895 26.9103 21.6096 27.1554 22.8C27.2047 23.1728 27.3467 23.5271 27.5683 23.8306C27.8181 24.0987 28.1309 24.2999 28.4781 24.416C28.8413 24.5595 29.2144 24.6767 29.5944 24.7665C29.1692 25.7575 28.6452 26.7029 28.0302 27.5884L27.4634 26.9995L25.9307 29.3972L25.8712 29.236C25.7978 29.3867 25.7138 29.5304 25.6263 29.6741L25.4688 29.236C24.79 30.5996 23.5198 31.7388 22.0361 32.6783C18.026 35.2022 12.4308 36.2468 12.4308 36.2468C3.41679 37.5578 5.08242 46.8858 5.08242 46.8858C5.08242 46.8858 1.25778 63.5296 0.183524 73.818C-0.890734 84.1064 3.10186 90.6616 3.10186 90.6616L4.7045 94.1951ZM47.6923 63.7749C48.0422 64.9212 48.3502 66.0079 48.6126 66.9579L48.4446 67.0245C48.2522 66.1446 47.9898 65.0159 47.7028 63.7749H47.6923ZM37.7756 35.8472L37.7266 35.8787L37.7721 35.8332L37.7756 35.8472ZM22.2286 209.762C21.7877 207.122 21.1298 203.936 20.7239 202.033C21.0108 201.097 21.3922 199.666 21.8401 197.539C22.8479 192.768 23.4498 175.886 23.4498 175.886L25.8012 161.703C27.9498 156.255 28.4187 149.784 28.4187 149.784C29.283 147.499 31.281 133.508 31.5994 131.261C31.5085 132.814 31.2915 136.747 31.176 141.115C31.176 141.154 31.176 141.196 31.176 141.234C31.0886 144.533 31.0641 148.07 31.176 151.004C31.2075 151.828 31.2495 152.61 31.3055 153.332C31.323 153.517 31.3335 153.71 31.3405 153.9C31.5924 161.506 28.1912 171.076 28.1912 171.076C28.1912 171.076 26.676 178.171 26.9 182.136C26.8974 182.848 26.9987 183.556 27.2009 184.239C27.3012 184.555 27.3588 184.882 27.3724 185.214C27.4354 189.006 25.1994 196.967 24.629 198.92C23.3833 201.493 22.456 208.051 22.2286 209.762Z" transform="translate(52.5262 65.0929)" fill="url(#paint1_linear)"/>
<path d="M12.3067 2.2821C12.3067 2.2821 16.2328 9.41215 21.7546 9.94498C27.2764 10.4778 27.4093 13.8009 23.5497 15.0103C19.6901 16.2197 11.5754 15.0103 11.5754 15.0103L0 12.1464C0 12.1464 1.39968 0.683636 3.25777 0.0842073C5.11585 -0.515221 12.3067 2.2821 12.3067 2.2821Z" transform="translate(74.9228 262.221)" fill="#4C4C78"/>
<path d="M10.1717 0.822607C10.1717 0.822607 13.1005 14.017 12.3692 14.5534C11.6378 15.0897 0.527839 17.9501 0.121931 13.351C0.0869385 12.9689 0.0589482 12.5973 0.037953 12.2433C-0.130658 9.28632 0.263589 6.32419 1.19969 3.51477C1.5194 2.65423 1.6726 1.74057 1.65109 0.822607C1.45863 -1.02826 10.1717 0.822607 10.1717 0.822607Z" transform="translate(62.9525 263.8)" fill="#4C4C78"/>
<path d="M0 16.013C0 16.013 8.97898 38.0972 7.38334 31.0162C6.33358 26.3119 13.1605 20.0688 17.881 16.3986C20.2849 14.5267 22.1465 13.3243 22.1465 13.3243C22.1465 13.3243 5.28031 -6.36918 6.47704 2.12798C6.80461 4.45481 6.48622 6.82708 5.55675 8.9846C4.32682 11.76 2.4151 14.178 0 16.013V16.013Z" transform="translate(76.7529 81.5654)" fill="#FFB9B9"/>
<path d="M0 8.22838C0.686428 8.13303 1.385 8.17714 2.05405 8.35808C3.41605 8.67169 4.75477 9.07929 6.06064 9.57797C6.06064 9.57797 12.6741 10.3772 11.6594 3.43295C10.9175 -1.74807 5.03887 0.130832 2.09603 1.42083C1.09526 1.85901 0.430407 2.23059 0.430407 2.23059L0 8.22838Z" transform="translate(134.133 120.734)" fill="#FFB9B9"/>
<path opacity="0.1" d="M0 6.80755C0.686428 6.7122 1.385 6.75631 2.05405 6.93725C2.77138 5.11793 2.2255 0.809754 2.11002 0C1.10925 0.438179 0.444407 0.809764 0.444407 0.809764L0 6.80755Z" transform="translate(134.133 122.155)" fill="black"/>
<path d="M0.531887 0.318995L2.26049 0C2.26049 0 3.14929 5.95923 1.99105 7.51564H0L0.531887 0.318995Z" transform="translate(133.566 122.029)" fill="#CBCDDA"/>
<path d="M1.41367 1.18501C1.41367 1.18501 6.70449 -1.96988 7.33434 2.01579C7.9642 6.00146 8.80052 12.8476 8.80052 12.8476L10.2632 21.5445L12.1598 38.9735L11.8938 41.9391C11.8938 41.9391 6.27059 40.0532 4.94089 40.7052C3.61118 41.3572 2.54392 33.3929 2.54392 33.3929L0.349921 25.1271L0 7.59995L1.41367 1.18501Z" transform="translate(97.9896 132.026)" fill="#4C4C78"/>
<path opacity="0.1" d="M1.41367 1.18501C1.41367 1.18501 6.70449 -1.96988 7.33434 2.01579C7.9642 6.00146 8.80052 12.8476 8.80052 12.8476L10.2632 21.5445L12.1598 38.9735L11.8938 41.9391C11.8938 41.9391 6.27059 40.0532 4.94089 40.7052C3.61118 41.3572 2.54392 33.3929 2.54392 33.3929L0.349921 25.1271L0 7.59995L1.41367 1.18501Z" transform="translate(97.9896 132.026)" fill="black"/>
<path d="M0 0C0 0 5.49026 6.1976 13.8219 7.44904C22.1535 8.70047 32.4342 9.09659 32.4342 9.09659C32.4342 9.09659 35.0271 13.7448 31.2865 18.6945L10.3297 18.2317C10.3297 18.2317 5.68973 17.2222 2.09604 18.2317L0 0Z" transform="translate(102.248 112.683)" fill="#4C4C78"/>
<path opacity="0.05" d="M0 0C0 0 5.49026 6.1976 13.8219 7.44904C22.1535 8.70047 32.4342 9.09659 32.4342 9.09659C32.4342 9.09659 35.0271 13.7448 31.2865 18.6945L10.3297 18.2317C10.3297 18.2317 5.68973 17.2222 2.09604 18.2317L0 0Z" transform="translate(102.248 112.683)" fill="black"/>
<path opacity="0.1" d="M0.029309 8.77777C2.07635 13.1631 5.62804 16.3986 10.7929 16.3986C11.0203 16.3986 11.2408 16.3986 11.4647 16.3986C13.8687 14.5267 15.7303 13.3243 15.7303 13.3243C15.7303 13.3243 -1.13593 -6.36918 0.0608006 2.12798C0.428218 4.71148 0.851624 6.82525 0.029309 8.77777Z" transform="translate(83.1761 81.5793)" fill="black"/>
<path d="M2.34613e-05 12.8755C-0.000668523 15.4227 0.752652 17.9129 2.16472 20.0312C3.57679 22.1495 5.58419 23.8008 7.93307 24.7762C10.282 25.7517 12.8668 26.0074 15.3608 25.5111C17.8548 25.0149 20.1458 23.7889 21.9443 21.9882C23.7427 20.1876 24.9678 17.8931 25.4645 15.395C25.9613 12.8968 25.7074 10.3072 24.735 7.95366C23.7626 5.60008 22.1153 3.58821 20.0015 2.17248C17.8877 0.756745 15.4023 0.00073219 12.8596 3.87877e-05C11.1703 -0.00411896 9.49679 0.326022 7.93518 0.971515C6.37356 1.61701 4.95459 2.56514 3.75973 3.76147C2.56487 4.9578 1.61766 6.37877 0.972462 7.94281C0.327265 9.50685 -0.0032073 11.1832 2.34613e-05 12.8755Z" transform="translate(81.1129 71.8239)" fill="#FFB9B9"/>
<path d="M0 65.8039C0 65.8039 28.6725 68.3383 29.7433 64.6717C30.8141 61.005 26.818 51.0776 26.818 51.0776L28.0987 37.2136L28.1477 36.6808C28.1477 36.6808 24.5645 21.6846 24.6834 20.4998C24.8059 19.4236 18.8992 6.82858 17.685 4.26611L17.4646 3.80339L17.2371 3.9366L17.1391 3.9962L15.7395 4.81647L10.1862 3.50543L3.50271 0L2.86935 38.3494L0 65.8039Z" transform="translate(73.2571 97.5959)" fill="#CBCDDA"/>
<path opacity="0.1" d="M1.22823 0.0658116C1.22823 0.0658116 3.19128 -0.467015 3.95761 1.49953C4.25317 2.33975 4.60385 3.15947 5.00737 3.95333L5.7737 8.51039L7.17338 15.707L8.20215 47.6064L7.74025 53.2852L5.17883 48.7282L4.71344 18.932V15.2163C4.56233 12.0101 3.83941 8.85684 2.57892 5.90586L2.229 5.06805L0 2.20413L1.22823 0.0658116Z" transform="translate(86.9321 101.786)" fill="black"/>
<path d="M1.23522 0.0658116C1.23522 0.0658116 3.19827 -0.467015 3.9646 1.49953C4.26016 2.33975 4.61085 3.15947 5.01437 3.95333L5.78069 8.51039L7.18038 15.707L8.21265 47.6064L7.74376 53.2712L5.18233 48.7142L4.71694 18.918V15.2023C4.56701 11.9962 3.84529 8.84302 2.58592 5.89184L2.236 5.05404L0 2.20062L1.23522 0.0658116Z" transform="translate(87.324 101.386)" fill="#4C4C78"/>
<path opacity="0.1" d="M2.6629 0C2.6629 0 9.44787 7.20015 11.8413 8.06249C11.8413 8.06249 10.6446 13.5275 9.44787 14.5931C9.44787 14.5931 2.32698 7.31934 1.04976 6.73043L0 4.13991L2.6629 0Z" transform="translate(77.5157 93.2071)" fill="black"/>
<path d="M2.6629 0C2.6629 0 9.44787 7.20015 11.8413 8.06249C11.8413 8.06249 10.6446 13.5275 9.44787 14.5931C9.44787 14.5931 2.32698 7.31934 1.04976 6.73043L0 4.13991L2.6629 0Z" transform="translate(77.5157 92.8215)" fill="#CBCDDA"/>
<path opacity="0.1" d="M0 0L0.0699885 0.185787L2.2465 6.02583L6.13063 17.0539C6.13063 17.0539 6.16911 17.1661 6.2356 17.3764C6.87945 19.3815 10.3437 30.2659 11.026 33.4313L11.075 32.8984C11.075 32.8984 7.49531 17.8882 7.61429 16.7034C7.73676 15.6272 1.83009 3.03219 0.615865 0.469726C0.423408 0.33652 0.265944 0.224345 0.167966 0.140215L0 0Z" transform="translate(90.3263 101.392)" fill="black"/>
<path d="M0 0L2.2465 6.03285L6.13412 17.0609C6.13412 17.0609 6.17262 17.1731 6.2391 17.3834C6.92145 19.5217 10.8091 31.7206 11.138 33.9536C11.4879 36.4074 16.3868 49.6509 16.3868 49.6509L19.1862 72.5939C21.6811 70.6449 18.1364 51.9119 18.1364 51.9119C18.1364 51.9119 14.1438 24.1209 13.199 14.877C12.2542 5.63322 7.1349 2.899 7.1349 2.899C4.77993 2.77981 2.6594 1.74221 1.35419 0.939463C0.88242 0.656863 0.430017 0.343004 0 0V0Z" transform="translate(90.7217 101.385)" fill="#4C4C78"/>
<path opacity="0.1" d="M0.103816 90.9729C0.702182 95.4388 1.5035 107.904 1.5035 107.904C4.30287 112.111 10.486 109.836 10.486 109.836C10.486 109.836 11.1473 108.567 12.1446 103.834C13.1419 99.102 13.7437 82.3741 13.7437 82.3741L16.0742 68.3138C18.2017 62.9154 18.6671 56.518 18.6671 56.518C19.5979 54.0642 21.8619 37.8551 21.8619 37.8551C21.8619 37.8551 20.9276 52.3851 21.512 60.048C22.0964 67.7109 18.4537 78.0449 18.4537 78.0449C18.4537 78.0449 16.3892 87.7093 17.4564 90.7065C18.5237 93.7036 14.7935 106.102 14.7935 106.102C15.1259 109.702 25.704 108.234 25.704 108.234C25.704 108.234 30.6939 94.8394 31.5582 86.7734C32.0815 81.9106 32.9385 77.0898 34.1232 72.345L34.984 61.1487L36.5166 54.5515L38.3467 45.823C40.4077 39.422 41.0411 28.727 41.0411 28.727L42.6367 18.2317C43.6865 13.0402 42.3323 6.95477 41.4225 3.75782C41.0306 2.38019 40.7227 1.53538 40.7227 1.53538C39.8059 2.18739 34.5571 2.93755 31.8417 3.57203C30.351 3.91372 28.818 4.03185 27.2927 3.92258C20.4306 3.37955 13.6419 2.13568 7.03226 0.210328L6.33241 0L6.19245 1.19886L5.86352 4.05929L5.28265 9.13165C5.28265 9.13165 3.48405 36.19 4.54781 39.8567C5.61157 43.5234 3.81648 55.838 3.81648 55.838C4.81376 58.7615 1.68896 70.6449 1.68896 70.6449C1.68896 70.6449 -0.494549 86.5105 0.103816 90.9729Z" transform="translate(62.4457 158.001)" fill="black"/>
<path d="M0.103398 90.9729C0.701763 95.4388 1.50308 107.904 1.50308 107.904C4.30245 112.111 10.4856 109.836 10.4856 109.836C10.4856 109.836 11.1469 108.567 12.1442 103.834C13.1415 99.102 13.7433 82.3741 13.7433 82.3741L16.0738 68.3138C18.2013 62.9154 18.6667 56.518 18.6667 56.518C19.5975 54.0642 21.8615 37.8551 21.8615 37.8551C21.8615 37.8551 20.9272 52.3851 21.5116 60.048C22.0959 67.7109 18.4533 78.0449 18.4533 78.0449C18.4533 78.0449 16.3887 87.7093 17.456 90.7065C18.5233 93.7036 14.7931 106.102 14.7931 106.102C15.1255 109.702 25.7036 108.234 25.7036 108.234C25.7036 108.234 30.6935 94.8394 31.5578 86.7734C32.0811 81.9106 32.9381 77.0898 34.1227 72.345L34.9835 61.1487L36.5162 54.5515L38.3463 45.823C40.4073 39.422 41.0407 28.727 41.0407 28.727L42.6363 18.2282C43.6861 13.0402 42.3319 6.95477 41.4221 3.75782C41.0302 2.38019 40.7222 1.53537 40.7222 1.53537C39.8055 2.18738 34.5566 2.93755 31.8412 3.57203C30.3506 3.91372 28.8176 4.03185 27.2923 3.92258C20.4302 3.37955 13.6415 2.13567 7.03184 0.210317L6.332 0L6.19203 1.19885L5.8631 4.05928L5.28223 9.13164C5.28223 9.13164 3.48364 36.19 4.5474 39.8567C5.61116 43.5234 3.82656 55.8415 3.82656 55.8415C4.82383 58.765 1.69904 70.6484 1.69904 70.6484C1.69904 70.6484 -0.494968 86.5105 0.103398 90.9729Z" transform="translate(62.4462 157.602)" fill="#474463"/>
<path opacity="0.1" d="M6.96688e-07 12.8915C-0.000738552 15.1389 0.586842 17.3471 1.70411 19.2959C3.70566 19.6465 5.83669 19.2609 7.35185 17.9323C8.37712 17.0279 9.03847 15.7905 9.92027 14.7424C10.4902 14.0955 11.104 13.4888 11.7574 12.9266C12.1819 12.5017 12.6708 12.1468 13.206 11.8749C13.4762 11.7364 13.7748 11.6624 14.0784 11.6588C14.3819 11.6551 14.6822 11.7219 14.9556 11.8539C15.6555 12.25 15.9074 13.1299 16.3063 13.8345C16.6149 14.4364 17.1422 14.8968 17.7795 15.121C18.0968 15.2209 18.4377 15.2166 18.7525 15.1088C19.0672 15.0009 19.3393 14.7952 19.5291 14.5215C19.963 13.7714 19.6446 12.6006 20.3759 12.1449C20.5681 12.0499 20.7669 11.969 20.9708 11.903C21.9121 11.4753 22.0205 10.2099 22.0975 9.17926C22.1395 8.67097 22.248 8.09609 22.6749 7.82266C23.1018 7.54924 23.6582 7.68595 24.1656 7.69997C24.3158 7.70321 24.466 7.69028 24.6135 7.66141C23.4193 4.96177 21.3355 2.75519 18.7109 1.41126C16.0863 0.067337 13.0804 -0.332295 10.1968 0.279304C7.31314 0.890903 4.72686 2.47659 2.87115 4.77075C1.01545 7.0649 0.00303817 9.92819 0.00350333 12.881L6.96688e-07 12.8915Z" transform="translate(81.113 71.8079)" fill="black"/>
<path d="M27.1039 1.92228C27.599 2.28585 28.0101 2.75214 28.309 3.28933C28.6079 3.82653 28.7877 4.42199 28.836 5.0351C28.8596 5.24063 28.8442 5.44878 28.7905 5.64855C28.7021 5.85941 28.598 6.06329 28.4791 6.25849C27.8212 7.56251 28.829 9.11191 28.696 10.5702C28.6115 11.2577 28.2815 11.8913 27.767 12.3539C27.2524 12.8166 26.588 13.077 25.8966 13.0871C25.3892 13.0871 24.8469 12.9363 24.406 13.2098C23.9651 13.4832 23.8706 14.0581 23.8286 14.5664C23.7481 15.6005 23.6431 16.8659 22.7019 17.2901C22.4985 17.3588 22.2997 17.4408 22.107 17.5355C21.3757 17.9912 21.6976 19.1655 21.2602 19.9086C21.0712 20.1833 20.7994 20.3901 20.4845 20.4986C20.1696 20.6072 19.8282 20.6117 19.5106 20.5116C18.874 20.2862 18.3471 19.8261 18.0374 19.2251C17.635 18.524 17.3935 17.6406 16.6867 17.2445C16.4133 17.1127 16.1133 17.0458 15.8099 17.0488C15.5065 17.0519 15.2078 17.1248 14.9371 17.262C14.402 17.5341 13.9131 17.889 13.4884 18.3137C12.8359 18.8768 12.2222 19.4834 11.6513 20.1295C10.7695 21.1811 10.1082 22.415 9.07942 23.3194C7.14786 25.0196 4.18053 25.1878 1.80107 24.2203C1.4576 24.104 1.14768 23.9055 0.898266 23.6419C0.673807 23.3367 0.529432 22.9799 0.478367 22.6043C0.236651 21.4241 0.1671 20.215 0.271905 19.0147C0.414319 18.0868 0.484516 17.1492 0.481859 16.2104C0.415374 15.2008 0.0549608 14.2263 0.0059718 13.2168C-0.0815085 11.4325 0.80379 9.73588 1.89554 8.30917C2.5464 7.46787 3.27773 6.68616 3.8411 5.78526C4.33099 5.00355 4.68791 4.13771 5.21629 3.38054C6.44801 1.62782 8.52655 0.576196 10.6471 0.194104C12.7676 -0.187988 14.9476 0.0538835 17.0751 0.404426C18.9262 0.712904 20.7878 1.1651 22.6739 1.27377C24.294 1.37192 25.6167 0.821573 27.1039 1.92228Z" transform="translate(79.3923 66.0457)" fill="#472727"/>
<path opacity="0.1" d="M0 0L2.2465 6.03285L6.13412 17.0609C6.13412 17.0609 6.17261 17.1731 6.2391 17.3834L1.3402 0.939463C0.873231 0.656337 0.425509 0.342488 0 0V0Z" transform="translate(90.7217 101.385)" fill="black"/>
<path d="M0.00871579 2.87795C0.00871579 2.87795 -0.225736 10.1728 1.73732 11.9921L6.95814 2.1278L2.57014 0L0.00871579 2.87795Z" transform="translate(66.432 167.522)" fill="#FFB9B9"/>
<path opacity="0.1" d="M0 78.0168C2.39696 80.8212 12.8211 81.3154 12.8211 81.3154L23.1543 65.0222C23.1543 65.0222 25.6037 63.3221 30.1842 55.6732C34.7647 48.0244 34.6247 42.1282 34.3833 37.7289C34.1418 33.3296 31.234 20.682 31.234 20.682C30.7896 17.8356 24.3545 0 24.3545 0C23.6792 1.3531 22.423 2.47834 20.9498 3.41079C16.9782 5.90315 11.4249 6.92322 11.4249 6.92322C2.49144 8.22374 4.13957 17.4711 4.13957 17.4711C4.13957 17.4711 4.0311 53.4262 4.59097 57.7239C5.15084 62.0216 0 78.0168 0 78.0168Z" transform="translate(54.2495 95.0474)" fill="black"/>
<path d="M0 4.2661L0.29743 6.93023L3.92612 5.59817L6.58551 1.56693L4.59096 0L0 4.2661Z" transform="translate(66.3078 167.533)" fill="#CBCDDA"/>
<path opacity="0.1" d="M0 3.65617L1.89657 3.84896L20.1904 5.6788C23.1255 5.97414 26.0882 5.82881 28.9805 5.24763L37.4591 3.5475C37.0671 2.16987 36.7592 1.32505 36.7592 1.32505C35.8424 1.97706 30.5936 2.72723 27.8782 3.36172C26.3876 3.7034 24.8545 3.82154 23.3292 3.71226C16.4589 3.17089 9.66193 1.92699 3.04431 0L2.2185 0.988533L0 3.65617Z" transform="translate(66.4337 157.812)" fill="black"/>
<g opacity="0.1">
<path opacity="0.1" d="M0 0.10225C0.0615377 0.0714207 0.121379 0.037286 0.179256 0L0.196826 0.0493657L0 0.10225Z" transform="translate(102.983 159.137)" fill="black"/>
<path opacity="0.1" d="M1.71682 70.6449C1.71682 70.6449 4.84511 58.7615 3.84433 55.838C3.84433 55.838 5.64293 43.5234 4.57567 39.8567C3.50841 36.1901 5.3105 9.13164 5.3105 9.13164L5.90187 4.05928L6.25179 1.19885L6.39176 0C6.39176 0 6.62971 0.0771109 7.0916 0.210317L7.51501 0.336518L7.41703 0.806244L7.0846 3.66668L6.49324 8.73903C6.49324 8.73903 4.69814 35.7939 5.7584 39.4641C6.81866 43.1343 5.03056 55.4454 5.03056 55.4454C6.02784 58.3689 2.90305 70.2523 2.90305 70.2523C2.90305 70.2523 0.70554 86.1179 1.30391 90.5838C1.90227 95.0497 2.70359 107.512 2.70359 107.512C4.74363 110.582 8.59626 110.197 10.5208 109.765C10.4998 109.818 10.4858 109.846 10.4858 109.846C10.4858 109.846 4.29923 112.111 1.50336 107.915C1.50336 107.915 0.705543 95.4493 0.103679 90.9834C-0.498186 86.5175 1.71682 70.6449 1.71682 70.6449Z" transform="translate(62.4109 157.602)" fill="black"/>
<path opacity="0.1" d="M2.67339 53.251C1.62363 50.2538 3.67417 40.5894 3.67417 40.5894C3.67417 40.5894 7.32734 30.2589 6.72898 22.5925C6.48053 19.399 6.49803 15.0173 6.60301 10.9895C7.45332 5.8015 8.26163 0 8.26163 0C8.26163 0 7.32735 14.5265 7.92922 22.1929C8.53108 29.8592 4.8709 40.1897 4.8709 40.1897C4.8709 40.1897 2.80637 49.8542 3.87363 52.8514C4.94089 55.8485 1.21072 68.2472 1.21072 68.2472C1.47666 71.1322 8.31412 70.7641 11.0085 70.5012L10.907 70.7781C10.907 70.7781 0.328926 72.2469 0 68.6468C0.0139968 68.6468 3.73715 56.2446 2.67339 53.251Z" transform="translate(77.2218 195.057)" fill="black"/>
</g>
<path d="M0 78.0168C2.39696 80.8212 12.8211 81.3154 12.8211 81.3154L23.1508 65.0222C23.1508 65.0222 25.6002 63.3221 30.1842 55.6732C34.7682 48.0244 34.6247 42.1282 34.3833 37.7289C34.1418 33.3296 31.234 20.682 31.234 20.682C30.7896 17.8356 24.3545 0 24.3545 0C23.6792 1.3531 22.4229 2.47834 20.9498 3.41079C16.9747 5.90315 11.4284 6.92322 11.4284 6.92322C2.49494 8.22374 4.14306 17.4711 4.14306 17.4711C4.14306 17.4711 4.04509 53.4122 4.59447 57.7099C5.14384 62.0075 0 78.0168 0 78.0168Z" transform="translate(53.8505 95.0474)" fill="#4C4C78"/>
<path opacity="0.1" d="M1.51516 8.83718L3.76165 9.6855L2.26399 10.7371L13.4335 37.7289C13.1745 33.3296 10.2842 20.682 10.2842 20.682C9.83978 17.8356 3.40473 0 3.40473 0C2.72938 1.3531 1.47317 2.47834 0 3.41079L1.51516 8.83718Z" transform="translate(74.7864 95.0474)" fill="black"/>
<path opacity="0.1" d="M12.9261 2.94807L1.49766 0L0 4.6482L11.6769 7.49812L12.9261 2.94807Z" transform="translate(60.6845 149.021)" fill="black"/>
<path opacity="0.1" d="M13.6802 0.664938C13.6802 0.664938 18.8695 5.57254 16.924 16.4604C14.9784 27.3483 11.8361 39.2036 11.8361 39.2036L20.2867 62.6479C20.2867 62.6479 14.3976 68.7964 11.5037 69.5431L3.07061 50.7996C3.07061 50.7996 -0.869504 44.3005 0.17676 34.1067C1.22302 23.9129 5.01617 7.41289 5.01617 7.41289C5.01617 7.41289 4.99867 -2.63367 13.6802 0.664938Z" transform="translate(53.3904 105.12)" fill="black"/>
<path d="M13.7047 0.664938C13.7047 0.664938 18.894 5.57254 16.9485 16.4604C15.0029 27.3483 11.8606 39.2036 11.8606 39.2036L20.2832 62.6479C20.2832 62.6479 14.4046 68.7964 11.5037 69.5431L3.07061 50.7996C3.07061 50.7996 -0.869504 44.3005 0.17676 34.1067C1.22302 23.9129 5.01617 7.41289 5.01617 7.41289C5.01617 7.41289 5.01617 -2.63367 13.7047 0.664938Z" transform="translate(52.9739 105.12)" fill="#4C4C78"/>
<path opacity="0.1" d="M6.11227 0.0369689C6.11227 0.0369689 -0.47325 9.15108 0.0271368 11.6049C0.527524 14.0587 2.45559 12.7371 2.45559 12.7371L5.0625 9.16861L7.39298 2.5083C7.39298 2.5083 7.16203 -0.355639 6.11227 0.0369689Z" transform="translate(66.865 168.228)" fill="black"/>
<path opacity="0.1" d="M6.11575 0.0369276C6.11575 0.0369276 -0.473264 9.15104 0.0271231 11.6048C0.52751 14.0586 2.45558 12.7371 2.45558 12.7371L5.04849 9.17207L7.37897 2.51176C7.37897 2.51176 7.15152 -0.35568 6.11575 0.0369276Z" transform="translate(67.6768 168.228)" fill="black"/>
<path d="M6.11227 0.0369276C6.11227 0.0369276 -0.47325 9.15104 0.0271368 11.6048C0.527524 14.0586 2.45559 12.7371 2.45559 12.7371L5.04851 9.17207L7.37898 2.51176C7.37898 2.51176 7.15153 -0.35568 6.11227 0.0369276Z" transform="translate(67.2779 168.228)" fill="#474463"/>
<path d="M40.5209 20.2964C62.8999 20.2964 81.0417 15.7529 81.0417 10.1482C81.0417 4.54352 62.8999 0 40.5209 0C18.1418 0 0 4.54352 0 10.1482C0 15.7529 18.1418 20.2964 40.5209 20.2964Z" transform="translate(235 289.385)" fill="#1862D1"/>
<path d="M0.585853 77.3683C0.585853 77.3683 -3.08132 52.0591 7.9342 35.4013C12.6077 28.4445 14.9014 20.1562 14.4707 11.7818C14.2373 7.80806 13.6399 3.86422 12.6861 0" transform="translate(282.101 224.864)" stroke="#535461" stroke-width="0.700464" stroke-miterlimit="10"/>
<path d="M10.7856 6.31623C10.3622 9.29234 3.74867 17.1515 3.74867 17.1515C3.74867 17.1515 -0.383905 7.74643 0.0290022 4.77032C0.118347 4.05253 0.349604 3.35977 0.709238 2.73251C1.06887 2.10526 1.54968 1.5561 2.12357 1.11712C2.69747 0.678128 3.35295 0.358117 4.05171 0.175781C4.75046 -0.00655486 5.47847 -0.0475464 6.19322 0.0551752C6.90798 0.157897 7.59514 0.402286 8.21454 0.774062C8.83394 1.14584 9.37316 1.63754 9.80072 2.22046C10.2283 2.80337 10.5356 3.46579 10.7047 4.16903C10.8738 4.87226 10.9013 5.60222 10.7856 6.31623V6.31623Z" transform="translate(290.909 208)" fill="#0052CC"/>
<path d="M11.7888 9.02569C9.81529 11.2902 0 14.2838 0 14.2838C0 14.2838 1.62364 4.11809 3.5937 1.86761C4.06264 1.32855 4.63299 0.887303 5.27216 0.569054C5.91133 0.250806 6.6068 0.0617836 7.31889 0.0127944C8.03098 -0.0361947 8.74573 0.0558039 9.42233 0.283532C10.0989 0.511261 10.7241 0.870263 11.2622 1.34004C11.8003 1.80982 12.2408 2.38116 12.5585 3.02146C12.8762 3.66177 13.0648 4.3585 13.1137 5.07185C13.1626 5.78521 13.0708 6.50123 12.8435 7.17903C12.6162 7.85683 12.2578 8.48312 11.7888 9.02218V9.02569Z" transform="translate(296.443 223.052)" fill="#0052CC"/>
<path d="M12.8281 10.5024C9.98324 11.4629 0 9.10024 0 9.10024C0 9.10024 6.51553 1.15694 9.36039 0.199956C10.7004 -0.174256 12.1326 -0.0194291 13.3621 0.63255C14.5915 1.28453 15.5246 2.38401 15.9691 3.70453C16.4135 5.02504 16.3356 6.46602 15.7512 7.73068C15.1669 8.99534 14.1207 9.98737 12.8281 10.5024V10.5024Z" transform="translate(290.994 249.689)" fill="#0052CC"/>
<path d="M12.8806 10.2359C10.2387 11.6626 0 11.0071 0 11.0071C0 11.0071 5.08086 2.07878 7.72276 0.652072C8.99141 -0.0331145 10.4798 -0.185374 11.8605 0.228785C12.5442 0.433856 13.1808 0.771803 13.7341 1.22335C14.2873 1.6749 14.7464 2.2312 15.0851 2.86049C15.4238 3.48977 15.6354 4.17972 15.7079 4.89094C15.7804 5.60215 15.7123 6.32071 15.5076 7.00558C15.3029 7.69045 14.9656 8.32823 14.5148 8.88249C14.0641 9.43675 13.5088 9.89663 12.8806 10.2359V10.2359Z" transform="translate(282.81 270.477)" fill="#0052CC"/>
<path d="M1.13504 8.7754C2.96863 11.1556 12.5915 14.7346 12.5915 14.7346C12.5915 14.7346 11.5697 4.50579 9.73609 2.11509C8.85444 0.972488 7.55583 0.227528 6.1259 0.0441147C4.69598 -0.139299 3.25189 0.253845 2.11131 1.13706C0.970742 2.02027 0.227125 3.32121 0.0440365 4.75368C-0.139052 6.18614 0.253395 7.6328 1.13504 8.7754V8.7754Z" transform="translate(283.932 227.52)" fill="#0052CC"/>
<path d="M2.39401 9.95617C4.84346 11.6773 15.0997 12.2031 15.0997 12.2031C15.0997 12.2031 11.0756 2.73848 8.61212 1.02783C8.02749 0.605639 7.36488 0.304171 6.66284 0.14095C5.9608 -0.0222707 5.23335 -0.0439801 4.52286 0.0771063C3.81238 0.198193 3.13302 0.459651 2.52436 0.846251C1.91569 1.23285 1.38987 1.73687 0.977499 2.32898C0.565126 2.92109 0.274443 3.58945 0.122366 4.29517C-0.0297107 5.0009 -0.0401473 5.72988 0.0916756 6.43968C0.223499 7.14948 0.494948 7.82592 0.890211 8.42963C1.28547 9.03334 1.79666 9.55225 2.39401 9.95617V9.95617Z" transform="translate(273.477 250.456)" fill="#0052CC"/>
<path d="M1.67247 9.36566C3.80699 11.4689 13.8182 13.7299 13.8182 13.7299C13.8182 13.7299 11.4458 3.72893 9.30776 1.62567C8.80259 1.11138 8.20042 0.702821 7.53624 0.423739C6.87205 0.144656 6.15911 0.000612258 5.43887 1.94782e-06C4.71862 -0.000608362 4.00545 0.142209 3.34079 0.420166C2.67614 0.698122 2.07328 1.10567 1.56725 1.6191C1.06121 2.13254 0.662105 2.74162 0.393138 3.41095C0.124171 4.08027 -0.00928991 4.79649 0.000502327 5.51795C0.0102946 6.23941 0.163151 6.95171 0.450184 7.61346C0.737218 8.27521 1.15269 8.8732 1.67247 9.37266V9.36566Z" transform="translate(268.47 275.718)" fill="#0052CC"/>
<path d="M10.7856 6.31623C10.3622 9.29234 3.74867 17.1515 3.74867 17.1515C3.74867 17.1515 -0.383905 7.74643 0.0290022 4.77032C0.118347 4.05253 0.349604 3.35977 0.709238 2.73251C1.06887 2.10526 1.54968 1.5561 2.12357 1.11712C2.69747 0.678128 3.35295 0.358117 4.05171 0.175781C4.75046 -0.00655486 5.47847 -0.0475464 6.19322 0.0551752C6.90798 0.157897 7.59514 0.402286 8.21454 0.774062C8.83394 1.14584 9.37316 1.63754 9.80072 2.22046C10.2283 2.80337 10.5356 3.46579 10.7047 4.16903C10.8738 4.87226 10.9013 5.60222 10.7856 6.31623V6.31623Z" transform="translate(290.909 208)" fill="#00409F"/>
<path d="M11.7888 9.02569C9.81529 11.2902 0 14.2838 0 14.2838C0 14.2838 1.62364 4.11809 3.5937 1.86761C4.06264 1.32855 4.63299 0.887303 5.27216 0.569054C5.91133 0.250806 6.6068 0.0617836 7.31889 0.0127944C8.03098 -0.0361947 8.74573 0.0558039 9.42233 0.283532C10.0989 0.511261 10.7241 0.870263 11.2622 1.34004C11.8003 1.80982 12.2408 2.38116 12.5585 3.02146C12.8762 3.66177 13.0648 4.3585 13.1137 5.07185C13.1626 5.78521 13.0708 6.50123 12.8435 7.17903C12.6162 7.85683 12.2578 8.48312 11.7888 9.02218V9.02569Z" transform="translate(296.443 223.052)" fill="#00409F"/>
<path d="M12.8281 10.5024C9.98324 11.4629 0 9.10024 0 9.10024C0 9.10024 6.51553 1.15694 9.36039 0.199956C10.7004 -0.174256 12.1326 -0.0194291 13.3621 0.63255C14.5915 1.28453 15.5246 2.38401 15.9691 3.70453C16.4135 5.02504 16.3356 6.46602 15.7512 7.73068C15.1669 8.99534 14.1207 9.98737 12.8281 10.5024V10.5024Z" transform="translate(290.994 249.689)" fill="#00409F"/>
<path d="M12.8806 10.2359C10.2387 11.6626 0 11.0071 0 11.0071C0 11.0071 5.08086 2.07878 7.72276 0.652072C8.99141 -0.0331145 10.4798 -0.185374 11.8605 0.228785C12.5442 0.433856 13.1808 0.771803 13.7341 1.22335C14.2873 1.6749 14.7464 2.2312 15.0851 2.86049C15.4238 3.48977 15.6354 4.17972 15.7079 4.89094C15.7804 5.60215 15.7123 6.32071 15.5076 7.00558C15.3029 7.69045 14.9656 8.32823 14.5148 8.88249C14.0641 9.43675 13.5088 9.89663 12.8806 10.2359V10.2359Z" transform="translate(282.81 270.477)" fill="#00409F"/>
<path d="M1.13504 8.7754C2.96863 11.1556 12.5915 14.7346 12.5915 14.7346C12.5915 14.7346 11.5697 4.50579 9.73609 2.11509C8.85444 0.972488 7.55583 0.227528 6.1259 0.0441147C4.69598 -0.139299 3.25189 0.253845 2.11131 1.13706C0.970742 2.02027 0.227125 3.32121 0.0440365 4.75368C-0.139052 6.18614 0.253395 7.6328 1.13504 8.7754V8.7754Z" transform="translate(283.932 227.52)" fill="#00409F"/>
<path d="M2.39401 9.95617C4.84346 11.6773 15.0997 12.2031 15.0997 12.2031C15.0997 12.2031 11.0756 2.73848 8.61212 1.02783C8.02749 0.605639 7.36488 0.304171 6.66284 0.14095C5.9608 -0.0222707 5.23335 -0.0439801 4.52286 0.0771063C3.81238 0.198193 3.13302 0.459651 2.52436 0.846251C1.91569 1.23285 1.38987 1.73687 0.977499 2.32898C0.565126 2.92109 0.274443 3.58945 0.122366 4.29517C-0.0297107 5.0009 -0.0401473 5.72988 0.0916756 6.43968C0.223499 7.14948 0.494948 7.82592 0.890211 8.42963C1.28547 9.03334 1.79666 9.55225 2.39401 9.95617V9.95617Z" transform="translate(273.477 250.456)" fill="#00409F"/>
<path d="M1.67247 9.36566C3.80699 11.4689 13.8182 13.7299 13.8182 13.7299C13.8182 13.7299 11.4458 3.72893 9.30776 1.62567C8.80259 1.11138 8.20042 0.702821 7.53624 0.423739C6.87205 0.144656 6.15911 0.000612258 5.43887 1.94782e-06C4.71862 -0.000608362 4.00545 0.142209 3.34079 0.420166C2.67614 0.698122 2.07328 1.10567 1.56725 1.6191C1.06121 2.13254 0.662105 2.74162 0.393138 3.41095C0.124171 4.08027 -0.00928991 4.79649 0.000502327 5.51795C0.0102946 6.23941 0.163151 6.95171 0.450184 7.61346C0.737218 8.27521 1.15269 8.8732 1.67247 9.37266V9.36566Z" transform="translate(268.47 275.718)" fill="#00409F"/>
<path d="M20.2079 75.6507C20.2079 75.6507 6.617 54.0011 9.96575 34.2866C11.4267 26.0329 10.1755 17.5272 6.40005 10.0465C4.57821 6.50848 2.43586 3.14552 0 0" transform="translate(262.78 225.779)" stroke="#535461" stroke-width="0.700464" stroke-miterlimit="10"/>
<path d="M10.6566 3.97663C11.4684 6.87211 8.60253 16.7399 8.60253 16.7399C8.60253 16.7399 1.00924 9.8272 0.20442 6.92471C0.0105017 6.2365 -0.0462079 5.51676 0.037533 4.8066C0.121274 4.09644 0.34383 3.40974 0.692482 2.78574C1.04113 2.16174 1.50904 1.61265 2.06953 1.1698C2.63001 0.726962 3.27208 0.399047 3.95907 0.204784C4.64605 0.0105204 5.36451 -0.0462901 6.07342 0.0375997C6.78232 0.121489 7.46778 0.344441 8.09067 0.693712C8.71357 1.04298 9.26169 1.51175 9.70374 2.07323C10.1458 2.63471 10.4731 3.27792 10.6671 3.96612L10.6566 3.97663Z" transform="translate(254.153 209.369)" fill="#2974E4"/>
<path d="M10.5747 7.05193C9.68938 9.92288 1.92814 16.6463 1.92814 16.6463C1.92814 16.6463 -0.696272 6.71191 0.178531 3.83746C0.604042 2.45779 1.55923 1.30395 2.83395 0.62979C4.10868 -0.0443685 5.59852 -0.183626 6.97575 0.24264C8.35297 0.668906 9.50474 1.62579 10.1777 2.90278C10.8507 4.17977 10.9897 5.67226 10.5642 7.05193H10.5747Z" transform="translate(267.392 219.88)" fill="#2974E4"/>
<path d="M12.2997 9.44207C10.0882 11.4717 0 13.3506 0 13.3506C0 13.3506 2.74339 3.4478 4.9549 1.43217C6.01751 0.455992 7.4237 -0.0573541 8.86413 0.00509849C10.3046 0.0675511 11.6612 0.700669 12.6357 1.76517C13.6101 2.82968 14.1225 4.23837 14.0602 5.68135C13.9979 7.12433 13.3659 8.48341 12.3032 9.45959L12.2997 9.44207Z" transform="translate(273.001 244.987)" fill="#2974E4"/>
<path d="M11.4634 8.89955C9.62633 11.2762 0 14.8342 0 14.8342C0 14.8342 1.04977 4.6089 2.86936 2.2147C3.29903 1.6305 3.84095 1.13827 4.46327 0.76691C5.08558 0.395552 5.77574 0.152566 6.49315 0.0522595C7.21055 -0.0480466 7.94074 -0.00365459 8.64077 0.182814C9.34081 0.369284 9.99655 0.694064 10.5695 1.13808C11.1424 1.58209 11.621 2.13637 11.977 2.76832C12.333 3.40028 12.5593 4.09717 12.6426 4.81801C12.7259 5.53884 12.6644 6.26907 12.4619 6.96579C12.2595 7.6625 11.92 8.31163 11.4634 8.87501V8.89955Z" transform="translate(274.713 267.585)" fill="#2974E4"/>
<path d="M2.84528 10.231C5.48369 11.6647 15.7224 11.0233 15.7224 11.0233C15.7224 11.0233 10.6555 2.08791 8.02414 0.657696C7.39666 0.317045 6.70833 0.103544 5.99848 0.0293761C5.28864 -0.0447922 4.57116 0.0218166 3.88702 0.225423C3.20287 0.429028 2.56548 0.765648 2.01119 1.21603C1.4569 1.66641 0.996594 2.22175 0.656547 2.85034C0.3165 3.47894 0.103357 4.16847 0.0293203 4.87957C-0.0447165 5.59068 0.0217955 6.30943 0.22504 6.99479C0.428285 7.68015 0.764287 8.3187 1.21387 8.87397C1.66346 9.42924 2.21781 9.89037 2.84528 10.231V10.231Z" transform="translate(255.652 229.955)" fill="#2974E4"/>
<path d="M4.52159 10.8105C7.46792 11.3854 17.0488 7.70823 17.0488 7.70823C17.0488 7.70823 9.54295 0.69737 6.59662 0.125985C5.88904 -0.0292209 5.15763 -0.041149 4.44538 0.0908963C3.73314 0.222942 3.05441 0.496296 2.44914 0.894894C1.84387 1.29349 1.32426 1.80929 0.920843 2.41196C0.517424 3.01463 0.23834 3.69201 0.10001 4.40428C-0.0383194 5.11655 -0.0330974 5.84934 0.115345 6.55957C0.263788 7.2698 0.552466 7.94312 0.964412 8.53998C1.37636 9.13683 1.90326 9.64517 2.51413 10.0351C3.12501 10.425 3.80754 10.6887 4.52159 10.8105V10.8105Z" transform="translate(255.323 255.162)" fill="#2974E4"/>
<path d="M3.23973 10.4417C6.0391 11.4934 16.1098 9.49878 16.1098 9.49878C16.1098 9.49878 9.89523 1.32413 7.08887 0.258478C5.76365 -0.16588 4.32645 -0.0648998 3.07334 0.54062C1.82023 1.14614 0.846668 2.21007 0.353247 3.51322C-0.140174 4.81636 -0.115888 6.25947 0.421121 7.54521C0.958131 8.83095 1.96695 9.86138 3.23973 10.4242V10.4417Z" transform="translate(261.346 280.412)" fill="#2974E4"/>
</g>
<defs>
<linearGradient id="paint0_linear" x2="1" gradientUnits="userSpaceOnUse" gradientTransform="translate(-34.6527 247.294) scale(246.855 247.294) rotate(-90)">
<stop stop-color="#808080" stop-opacity="0.25"/>
<stop offset="0.54" stop-color="#808080" stop-opacity="0.12"/>
<stop offset="1" stop-color="#808080" stop-opacity="0.1"/>
</linearGradient>
<linearGradient id="paint1_linear" x2="1" gradientUnits="userSpaceOnUse" gradientTransform="translate(-67858.8 175260) scale(57698.5 -132609) rotate(90)">
<stop stop-color="#808080" stop-opacity="0.25"/>
<stop offset="0.54" stop-color="#808080" stop-opacity="0.12"/>
<stop offset="1" stop-color="#808080" stop-opacity="0.1"/>
</linearGradient>
<clipPath id="clip0">
<rect width="400" height="309.681" fill="white"/>
</clipPath>
</defs>
</svg>
