<svg width="477" height="374" viewBox="0 0 477 374" fill="none" xmlns="http://www.w3.org/2000/svg">
<g clip-path="url(#clip0)">
<path d="M17.0691 147.021C10.9953 145.542 2.80609 145.081 0.507109 150.874C-0.659708 153.813 0.399382 157.162 1.54721 160.131C6.40054 172.814 12.9006 184.935 20.8909 196.204C24.7098 201.578 28.973 206.968 30.3325 213.411C31.692 219.853 29.9243 226.618 27.6934 232.829C22.4366 247.545 14.6846 261.244 4.73412 273.403C20.2976 283.273 37.947 293.568 55.8023 289.888C66.4939 287.683 76.0373 280.555 86.9772 280.473C94.2824 280.416 101.245 283.542 107.903 286.664C139.419 301.439 170.288 317.567 200.509 335.045C213.166 342.368 225.981 350.035 240.209 353.12C254.437 356.204 270.637 353.87 280.639 343.414C282.179 341.803 283.735 339.937 285.896 339.473C308.871 327.594 319.862 336.189 321.69 337.012L361.532 368.482C367.589 371.196 373.876 373.962 380.46 373.91C386.843 373.864 392.831 371.195 398.626 368.549C411.87 362.525 377.711 338.7 380.46 324.277C382.67 312.717 409.156 320.277 404.156 305.277C399.156 290.277 418.021 286.459 414.383 275.217C408.849 258.107 440.654 265.608 446.749 248.854C452.263 233.681 456.386 218.026 459.073 202.057C461.431 188.019 462.652 173.494 459.522 159.536C456.391 145.577 448.361 132.134 435.901 125.162C419.629 116.056 398.323 118.96 383.306 107.854C370.613 98.4908 366.058 81.8555 357.925 68.2861C343.481 44.1807 317.485 29.7083 291.766 18.8086C264.5 7.24302 235.315 -1.70776 205.97 0.276643C199.248 0.729004 192.414 1.81015 186.548 5.07556C177.555 10.0863 172.012 19.499 164.557 26.6105C134.524 55.239 80.5132 41.9099 49.761 69.8072C38.8482 79.7021 33.0194 94.0721 31.9933 108.745C30.888 124.534 39.4383 126.708 39.5982 140.933C36.0573 149.563 24.1817 148.75 17.0691 147.021Z" fill="#E6EEFA"/>
<g opacity="0.2">
<path opacity="0.2" d="M0 91.0446C0 91.0446 2.398 59.186 20.4031 41.8753C28.0015 34.6635 33.0555 25.1814 34.8061 14.8527C35.592 9.9427 35.9264 4.97102 35.8053 0" transform="translate(421.562 97.5329)" stroke="#535461" stroke-width="2" stroke-miterlimit="10"/>
<path opacity="0.2" d="M13.1039 9.20731C11.775 12.7044 1.56345 20.503 1.56345 20.503C1.56345 20.503 -0.934472 7.90838 0.384436 4.39629C0.700332 3.56079 1.1777 2.79569 1.78928 2.14468C2.40086 1.49366 3.13471 0.969486 3.94887 0.60207C4.76303 0.234654 5.64158 0.0311972 6.53437 0.00331481C7.42716 -0.0245676 8.3167 0.123673 9.1522 0.439569C9.9877 0.755465 10.7528 1.23283 11.4038 1.84441C12.0548 2.45599 12.579 3.18982 12.9464 4.00398C13.3138 4.81814 13.5173 5.69669 13.5452 6.58948C13.5731 7.48227 13.4248 8.37181 13.1089 9.20731H13.1039Z" transform="translate(455.564 77.3497)" fill="#0052CC"/>
<path opacity="0.2" d="M15.8269 12.2801C12.8044 14.5083 0 15.4874 0 15.4874C0 15.4874 4.74109 3.55232 7.76359 1.32417C8.48264 0.794723 9.29892 0.412093 10.1658 0.198117C11.0328 -0.0158587 11.9334 -0.0569918 12.8162 0.0770779C13.699 0.211148 14.5467 0.517794 15.3111 0.979498C16.0754 1.4412 16.7413 2.04893 17.2707 2.76798C17.8002 3.48703 18.1828 4.30332 18.3968 5.17024C18.6107 6.03717 18.6519 6.93774 18.5178 7.82056C18.3837 8.70338 18.0771 9.55115 17.6154 10.3155C17.1537 11.0798 16.546 11.7457 15.8269 12.2751V12.2801Z" transform="translate(455.998 97.7125)" fill="#0052CC"/>
<path opacity="0.2" d="M15.2824 13.5667C11.5455 13.9614 0 8.34603 0 8.34603C0 8.34603 10.1167 0.437575 13.8486 0.0379059C15.6426 -0.15223 17.4387 0.378101 18.8417 1.51223C20.2447 2.64635 21.1397 4.29136 21.3299 6.08539C21.52 7.87942 20.9897 9.67551 19.8556 11.0785C18.7214 12.4815 17.0764 13.3766 15.2824 13.5667V13.5667Z" transform="translate(443.508 129.509)" fill="#0052CC"/>
<path opacity="0.2" d="M15.9468 13.3452C12.3298 14.3444 0 10.7823 0 10.7823C0 10.7823 8.63286 1.29018 12.2499 0.25604C13.1093 0.0132956 14.0082 -0.0577972 14.8951 0.0468322C15.782 0.151462 16.6396 0.429751 17.419 0.865826C18.1984 1.3019 18.8842 1.88722 19.4373 2.58835C19.9905 3.28948 20.4002 4.0927 20.6429 4.95215C20.8857 5.8116 20.9568 6.71044 20.8521 7.59736C20.7475 8.48428 20.4692 9.3419 20.0331 10.1213C19.597 10.9006 19.0117 11.5865 18.3106 12.1396C17.6095 12.6928 16.8063 13.1025 15.9468 13.3452V13.3452Z" transform="translate(427.347 152.541)" fill="#0052CC"/>
<path opacity="0.2" d="M0.643451 9.6885C2.23713 13.0907 13.0182 20.0649 13.0182 20.0649C13.0182 20.0649 14.5519 7.31545 12.9583 3.91326C12.5791 3.10466 12.0443 2.37868 11.3846 1.77674C10.7248 1.17481 9.95285 0.70872 9.11294 0.405092C8.27303 0.101463 7.38155 -0.0337663 6.48938 0.00713612C5.59721 0.0480386 4.72187 0.264274 3.91327 0.643481C3.10466 1.02269 2.37866 1.55744 1.77673 2.21722C1.17479 2.877 0.708691 3.64889 0.405062 4.48879C0.101434 5.3287 -0.0337652 6.22019 0.00713727 7.11235C0.0480397 8.00452 0.264245 8.8799 0.643451 9.6885V9.6885Z" transform="translate(441.741 99.1451)" fill="#0052CC"/>
<path opacity="0.2" d="M1.79301 11.3976C4.33091 14.1653 16.7057 17.5974 16.7057 17.5974C16.7057 17.5974 14.3526 4.9729 11.8147 2.20519C10.5958 0.87557 8.8985 0.0846376 7.09636 0.00640594C5.29422 -0.0718257 3.5348 0.569056 2.20518 1.78804C0.875555 3.00703 0.0846376 4.70427 0.00640594 6.50641C-0.0718257 8.30855 0.569056 10.068 1.78804 11.3976H1.79301Z" transform="translate(422.801 124.344)" fill="#0052CC"/>
<path opacity="0.2" d="M1.08431 10.4765C3.11763 13.6339 14.738 19.1044 14.738 19.1044C14.738 19.1044 14.5532 6.26502 12.5199 3.11763C11.5427 1.60118 10.0031 0.535035 8.23986 0.153714C6.4766 -0.227607 4.63408 0.107148 3.11763 1.08432C1.60119 2.0615 0.535037 3.60106 0.153717 5.36432C-0.227604 7.12758 0.107135 8.97008 1.08431 10.4865V10.4765Z" transform="translate(409.811 153.786)" fill="#0052CC"/>
</g>
<g filter="url(#filter0_d)">
<path d="M362 0H0V176C0 179.314 2.68629 182 6 182H356C359.314 182 362 179.314 362 176V0Z" transform="translate(65.1562 93.2766)" fill="white"/>
<path d="M356.275 0H6C2.68629 0 0 2.68629 0 6V17.5904H362.275V6C362.275 2.68629 359.589 0 356.275 0Z" transform="translate(65.067 75.2766)" fill="#0052CC"/>
<path d="M3.91176 7.82352C6.07217 7.82352 7.82352 6.07216 7.82352 3.91176C7.82352 1.75135 6.07217 0 3.91176 0C1.75136 0 0 1.75135 0 3.91176C0 6.07216 1.75136 7.82352 3.91176 7.82352Z" transform="translate(69.843 80.0527)" fill="white"/>
<path d="M3.91176 7.82352C6.07217 7.82352 7.82352 6.07216 7.82352 3.91176C7.82352 1.75135 6.07217 0 3.91176 0C1.75136 0 0 1.75135 0 3.91176C0 6.07216 1.75136 7.82352 3.91176 7.82352Z" transform="translate(80.2644 80.0527)" fill="white"/>
<path d="M3.91176 7.82352C6.07217 7.82352 7.82352 6.07216 7.82352 3.91176C7.82352 1.75135 6.07217 0 3.91176 0C1.75136 0 0 1.75135 0 3.91176C0 6.07216 1.75136 7.82352 3.91176 7.82352Z" transform="translate(90.6907 80.0527)" fill="white"/>
</g>
<path d="M183.351 0H3C1.34315 0 0 1.34315 0 3V10.4639C0 12.1207 1.34315 13.4639 3 13.4639H183.351C185.008 13.4639 186.351 12.1207 186.351 10.4639V3C186.351 1.34315 185.008 0 183.351 0Z" transform="translate(77.6616 110.277)" fill="#E6EEFA"/>
<path d="M94.7341 0H3C1.34315 0 0 1.34315 0 3V10.4639C0 12.1207 1.34314 13.4639 3 13.4639H94.7341C96.3909 13.4639 97.7341 12.1207 97.7341 10.4639V3C97.7341 1.34315 96.3909 0 94.7341 0Z" transform="translate(311.792 110.277)" fill="#E6EEFA"/>
<path d="M10.0292 0H3C1.34315 0 0 1.34315 0 3V40.0044C0 41.6612 1.34315 43.0044 3 43.0044H10.0292C11.6861 43.0044 13.0292 41.6612 13.0292 40.0044V3C13.0292 1.34315 11.6861 0 10.0292 0Z" transform="translate(92.1564 200.961)" fill="#E6EEFA"/>
<path d="M10.0292 0H3C1.34315 0 0 1.34315 0 3V70.8438C0 72.5007 1.34315 73.8438 3 73.8438H10.0292C11.6861 73.8438 13.0292 72.5007 13.0292 70.8438V3C13.0292 1.34315 11.6861 0 10.0292 0Z" transform="translate(117.35 170.116)" fill="#E6EEFA"/>
<path d="M10.0292 0H3C1.34315 0 0 1.34314 0 3V101.683C0 103.34 1.34315 104.683 3 104.683H10.0292C11.6861 104.683 13.0292 103.34 13.0292 101.683V3C13.0292 1.34315 11.6861 0 10.0292 0Z" transform="translate(142.545 139.277)" fill="#E6EEFA"/>
<path d="M10.0292 0H3C1.34315 0 0 1.34315 0 3V91.6966C0 93.3534 1.34315 94.6966 3 94.6966H10.0292C11.6861 94.6966 13.0292 93.3534 13.0292 91.6966V3C13.0292 1.34315 11.6861 0 10.0292 0Z" transform="translate(167.739 149.268)" fill="#E6EEFA"/>
<path d="M10.0292 0H3C1.34315 0 0 1.34315 0 3V62.1561C0 63.8129 1.34315 65.1561 3 65.1561H10.0292C11.6861 65.1561 13.0292 63.8129 13.0292 62.1561V3C13.0292 1.34315 11.6861 0 10.0292 0Z" transform="translate(192.933 178.804)" fill="#E6EEFA"/>
<path d="M95 0H3C1.34315 0 0 1.34315 0 3V114C0 115.657 1.34315 117 3 117H95C96.6569 117 98 115.657 98 114V3C98 1.34315 96.6569 0 95 0Z" transform="translate(311.156 139.277)" fill="#E6EEFA"/>
<path d="M3.84903 0C3.84903 0 -1.27675 2.95755 0.301948 7.09912C0.301948 7.09912 5.62754 8.67782 7.79574 12.6196C9.96395 16.5613 26.7251 30.7595 26.7251 30.7595L38.9649 24.6496C38.9649 24.6496 34.7134 18.9743 21.2646 15.0076C21.2646 15.0076 13.3362 6.5146 10.5734 4.93092C7.81073 3.34723 3.84903 0 3.84903 0Z" transform="translate(421.489 176.958)" fill="#797C9C"/>
<path opacity="0.05" d="M3.84903 0C3.84903 0 -1.27675 2.95755 0.301948 7.09912C0.301948 7.09912 5.62754 8.67782 7.79574 12.6196C9.96395 16.5613 26.7251 30.7595 26.7251 30.7595L38.9649 24.6496C38.9649 24.6496 34.7134 18.9743 21.2646 15.0076C21.2646 15.0076 13.3362 6.5146 10.5734 4.93092C7.81073 3.34723 3.84903 0 3.84903 0Z" transform="translate(423.987 179.456)" fill="black"/>
<path d="M7.80038 2.47426C7.80038 2.47426 -21.0058 19.8549 32.0953 46.6127C32.0953 46.6127 43.7956 24.8907 30.8613 7.18038C28.3499 3.72837 24.6597 1.31729 20.4897 0.403919C16.3196 -0.509454 11.9594 0.138297 8.23502 2.22446L7.80038 2.47426Z" transform="translate(122.156 322.441)" fill="#0052CC"/>
<path d="M0 0C0 0 24.6546 18.8594 23.9802 44.5032" transform="translate(130.286 324.545)" stroke="#535461" stroke-miterlimit="10"/>
<path d="M3.55756 97.829C3.55756 97.829 -5.46996 67.1594 5.23617 44.6231C9.79342 35.1902 11.1678 24.5336 9.15293 14.2532C8.15735 9.38074 6.71752 4.60975 4.85149 0" transform="translate(152.088 271.539)" stroke="#535461" stroke-width="2" stroke-miterlimit="10"/>
<path d="M13.5987 6.80186C13.5987 10.5588 6.79937 21.4497 6.79937 21.4497C6.79937 21.4497 0 10.5588 0 6.80186C0 4.9979 0.716626 3.26781 1.99222 1.99222C3.26782 0.716619 4.9979 0 6.80187 0C8.60584 0 10.3359 0.716619 11.6115 1.99222C12.8871 3.26781 13.6037 4.9979 13.6037 6.80186H13.5987Z" transform="translate(150.025 250.464)" fill="#0052CC"/>
<path d="M13.6687 10.4924C11.6254 13.6448 0 19.0903 0 19.0903C0 19.0903 0.209823 6.25091 2.25313 3.10351C2.73862 2.35396 3.36699 1.70735 4.10237 1.20064C4.83775 0.693928 5.66573 0.337023 6.53904 0.1503C7.41234 -0.0364235 8.31388 -0.0492929 9.19217 0.112398C10.0705 0.274089 10.9083 0.607176 11.6579 1.09267C12.4074 1.57815 13.054 2.20653 13.5607 2.9419C14.0674 3.67728 14.4243 4.50527 14.611 5.37858C14.7978 6.25189 14.8106 7.15343 14.649 8.03171C14.4873 8.91 14.1542 9.74783 13.6687 10.4974V10.4924Z" transform="translate(161.196 267.596)" fill="#0052CC"/>
<path d="M16.1416 12.8985C12.7894 14.5921 0 13.3981 0 13.3981C0 13.3981 6.66448 2.40713 10.0167 0.728524C11.6272 -0.0836919 13.4944 -0.222849 15.2076 0.341637C16.9207 0.906123 18.3394 2.12802 19.1516 3.73854C19.9639 5.34906 20.103 7.21627 19.5385 8.92941C18.9741 10.6425 17.7522 12.0613 16.1416 12.8735V12.8985Z" transform="translate(158.233 300.741)" fill="#0052CC"/>
<path d="M15.8219 12.269C12.8244 14.5022 0 15.5113 0 15.5113C0 15.5113 4.71111 3.5662 7.7336 1.33305C8.45167 0.801966 9.2673 0.417502 10.1339 0.201634C11.0006 -0.0142339 11.9013 -0.0572759 12.7845 0.0749382C13.6678 0.207152 14.5164 0.512038 15.2819 0.972206C16.0473 1.43237 16.7146 2.0388 17.2457 2.75686C17.7768 3.47493 18.1613 4.29057 18.3771 5.15722C18.593 6.02386 18.6361 6.92454 18.5038 7.80782C18.3716 8.69111 18.0667 9.5397 17.6066 10.3051C17.1464 11.0706 16.54 11.7379 15.8219 12.269V12.269Z" transform="translate(152.123 328.188)" fill="#0052CC"/>
<path d="M2.07513 11.6847C4.7679 14.3025 17.3225 17.0153 17.3225 17.0153C17.3225 17.0153 14.2501 4.52561 11.5523 1.92776C10.9116 1.3045 10.1545 0.813504 9.3241 0.48285C8.49371 0.152195 7.60632 -0.0116497 6.7126 0.000643918C5.81888 0.0129375 4.93633 0.201137 4.11535 0.554507C3.29436 0.907876 2.55101 1.41951 1.92775 2.06016C1.30449 2.70081 0.813511 3.45793 0.482857 4.28832C0.152203 5.11872 -0.0116497 6.00612 0.000643893 6.89984C0.0129375 7.79356 0.201137 8.6761 0.554507 9.49708C0.907876 10.3181 1.41949 11.0614 2.06014 11.6847H2.07513Z" transform="translate(144.843 275.731)" fill="#0052CC"/>
<path d="M3.73855 12.8985C7.09077 14.5921 19.8802 13.398 19.8802 13.398C19.8802 13.398 13.2157 2.40715 9.86347 0.728544C8.25295 -0.0836725 6.38574 -0.22286 4.67261 0.341626C2.95948 0.906113 1.54075 2.12801 0.728534 3.73853C-0.0836822 5.34905 -0.222854 7.21626 0.341632 8.9294C0.906118 10.6425 2.12803 12.0613 3.73855 12.8735V12.8985Z" transform="translate(136.055 305.977)" fill="#0052CC"/>
<path d="M2.7569 12.269C5.75442 14.5022 18.5788 15.5113 18.5788 15.5113C18.5788 15.5113 13.8677 3.56625 10.8452 1.3331C9.395 0.260527 7.57813 -0.192059 5.79426 0.0749591C4.01039 0.341977 2.40565 1.30672 1.33308 2.75691C0.2605 4.20711 -0.192056 6.02398 0.0749619 7.80785C0.34198 9.59172 1.3067 11.1965 2.7569 12.269V12.269Z" transform="translate(134.314 338.13)" fill="#0052CC"/>
<path opacity="0.25" d="M13.5987 6.80186C13.5987 10.5588 6.79937 21.4497 6.79937 21.4497C6.79937 21.4497 0 10.5588 0 6.80186C0 4.9979 0.716626 3.26781 1.99222 1.99222C3.26782 0.716619 4.9979 0 6.80187 0C8.60584 0 10.3359 0.716619 11.6115 1.99222C12.8871 3.26781 13.6037 4.9979 13.6037 6.80186H13.5987Z" transform="translate(150.025 250.464)" fill="black"/>
<path opacity="0.25" d="M13.6687 10.4924C11.6254 13.6448 0 19.0903 0 19.0903C0 19.0903 0.209823 6.25091 2.25313 3.10351C2.73862 2.35396 3.36699 1.70735 4.10237 1.20064C4.83775 0.693928 5.66573 0.337023 6.53904 0.1503C7.41234 -0.0364235 8.31388 -0.0492929 9.19217 0.112398C10.0705 0.274089 10.9083 0.607176 11.6579 1.09267C12.4074 1.57815 13.054 2.20653 13.5607 2.9419C14.0674 3.67728 14.4243 4.50527 14.611 5.37858C14.7978 6.25189 14.8106 7.15343 14.649 8.03171C14.4873 8.91 14.1542 9.74783 13.6687 10.4974V10.4924Z" transform="translate(161.196 267.596)" fill="black"/>
<path opacity="0.25" d="M16.1416 12.8985C12.7894 14.5921 0 13.3981 0 13.3981C0 13.3981 6.66448 2.40713 10.0167 0.728524C11.6272 -0.0836919 13.4944 -0.222849 15.2076 0.341637C16.9207 0.906123 18.3394 2.12802 19.1516 3.73854C19.9639 5.34906 20.103 7.21627 19.5385 8.92941C18.9741 10.6425 17.7522 12.0613 16.1416 12.8735V12.8985Z" transform="translate(158.233 300.741)" fill="black"/>
<path opacity="0.25" d="M15.8219 12.269C12.8244 14.5022 0 15.5113 0 15.5113C0 15.5113 4.71111 3.5662 7.7336 1.33305C8.45167 0.801966 9.2673 0.417502 10.1339 0.201634C11.0006 -0.0142339 11.9013 -0.0572759 12.7845 0.0749382C13.6678 0.207152 14.5164 0.512038 15.2819 0.972206C16.0473 1.43237 16.7146 2.0388 17.2457 2.75686C17.7768 3.47493 18.1613 4.29057 18.3771 5.15722C18.593 6.02386 18.6361 6.92454 18.5038 7.80782C18.3716 8.69111 18.0667 9.5397 17.6066 10.3051C17.1464 11.0706 16.54 11.7379 15.8219 12.269V12.269Z" transform="translate(152.123 328.188)" fill="black"/>
<path opacity="0.25" d="M2.07513 11.6847C4.7679 14.3025 17.3225 17.0153 17.3225 17.0153C17.3225 17.0153 14.2501 4.52561 11.5523 1.92776C10.9116 1.3045 10.1545 0.813504 9.3241 0.48285C8.49371 0.152195 7.60632 -0.0116497 6.7126 0.000643918C5.81888 0.0129375 4.93633 0.201137 4.11535 0.554507C3.29436 0.907876 2.55101 1.41951 1.92775 2.06016C1.30449 2.70081 0.813511 3.45793 0.482857 4.28832C0.152203 5.11872 -0.0116497 6.00612 0.000643893 6.89984C0.0129375 7.79356 0.201137 8.6761 0.554507 9.49708C0.907876 10.3181 1.41949 11.0614 2.06014 11.6847H2.07513Z" transform="translate(144.843 275.731)" fill="black"/>
<path opacity="0.25" d="M3.73855 12.8985C7.09077 14.5921 19.8802 13.398 19.8802 13.398C19.8802 13.398 13.2157 2.40715 9.86347 0.728544C8.25295 -0.0836725 6.38574 -0.22286 4.67261 0.341626C2.95948 0.906113 1.54075 2.12801 0.728534 3.73853C-0.0836822 5.34905 -0.222854 7.21626 0.341632 8.9294C0.906118 10.6425 2.12803 12.0613 3.73855 12.8735V12.8985Z" transform="translate(136.055 305.977)" fill="black"/>
<path opacity="0.25" d="M2.7569 12.269C5.75442 14.5022 18.5788 15.5113 18.5788 15.5113C18.5788 15.5113 13.8677 3.56625 10.8452 1.3331C9.395 0.260527 7.57813 -0.192059 5.79426 0.0749591C4.01039 0.341977 2.40565 1.30672 1.33308 2.75691C0.2605 4.20711 -0.192056 6.02398 0.0749619 7.80785C0.34198 9.59172 1.3067 11.1965 2.7569 12.269V12.269Z" transform="translate(134.314 338.13)" fill="black"/>
<path d="M3.55386 97.829C3.55386 97.829 -5.47367 67.1794 5.24746 44.6231C9.8047 35.1902 11.1791 24.5336 9.16421 14.2532C8.16863 9.38077 6.72881 4.60975 4.86278 0" transform="translate(172.979 272.124)" stroke="#535461" stroke-width="2" stroke-miterlimit="10"/>
<path d="M13.5987 6.80186C13.5987 10.5588 6.79937 21.4497 6.79937 21.4497C6.79937 21.4497 0 10.5588 0 6.80186C0 4.9979 0.716626 3.26781 1.99222 1.99222C3.26782 0.716619 4.9979 0 6.80187 0C8.60584 0 10.3359 0.716619 11.6115 1.99222C12.8871 3.26781 13.6037 4.9979 13.6037 6.80186H13.5987Z" transform="translate(170.913 251.064)" fill="#0052CC"/>
<path d="M13.6687 10.4924C11.6254 13.6448 0 19.0903 0 19.0903C0 19.0903 0.209823 6.25091 2.25313 3.10352C3.23362 1.58972 4.7753 0.527438 6.53903 0.150333C8.30275 -0.226771 10.144 0.11221 11.6578 1.0927C13.1716 2.07319 14.2339 3.61485 14.611 5.37858C14.9881 7.14231 14.6492 8.98359 13.6687 10.4974V10.4924Z" transform="translate(182.089 268.176)" fill="#0052CC"/>
<path d="M16.1416 12.8971C12.7894 14.5907 0 13.3967 0 13.3967C0 13.3967 6.66448 2.4058 10.0167 0.727194C10.8158 0.325025 11.6863 0.0841874 12.5784 0.0184301C13.4706 -0.0473273 14.367 0.0632709 15.2164 0.343936C16.0658 0.624601 16.8516 1.06983 17.529 1.65419C18.2063 2.23855 18.762 2.9506 19.1641 3.74969C19.5663 4.54877 19.8071 5.41924 19.8729 6.31141C19.9387 7.20357 19.828 8.09997 19.5474 8.94939C19.2667 9.79881 18.8215 10.5846 18.2371 11.262C17.6528 11.9393 16.9407 12.4949 16.1416 12.8971V12.8971Z" transform="translate(179.121 301.322)" fill="#0052CC"/>
<path d="M15.8219 12.269C12.8244 14.5021 0 15.5113 0 15.5113C0 15.5113 4.71111 3.56619 7.7336 1.33304C8.45167 0.801956 9.2673 0.417522 10.1339 0.201655C11.0006 -0.0142132 11.9013 -0.0572856 12.7845 0.0749284C13.6678 0.207142 14.5164 0.512028 15.2819 0.972196C16.0473 1.43236 16.7146 2.03882 17.2457 2.75688C17.7768 3.47495 18.1613 4.29056 18.3771 5.15721C18.593 6.02385 18.6361 6.92453 18.5038 7.80781C18.3716 8.6911 18.0667 9.53969 17.6066 10.3051C17.1464 11.0706 16.54 11.7379 15.8219 12.269V12.269Z" transform="translate(173.011 328.773)" fill="#0052CC"/>
<path d="M2.07513 11.6847C4.7679 14.3025 17.3225 17.0153 17.3225 17.0153C17.3225 17.0153 14.2501 4.52561 11.5523 1.92776C10.9116 1.3045 10.1545 0.813534 9.3241 0.48288C8.49371 0.152226 7.60632 -0.0116498 6.7126 0.00064381C5.81888 0.0129374 4.93633 0.201167 4.11535 0.554537C3.29436 0.907907 2.55101 1.41951 1.92775 2.06016C1.30449 2.70081 0.813511 3.45796 0.482857 4.28835C0.152203 5.11875 -0.0116497 6.00612 0.000643892 6.89984C0.0129375 7.79356 0.201137 8.6761 0.554507 9.49708C0.907876 10.3181 1.41949 11.0614 2.06014 11.6847H2.07513Z" transform="translate(165.74 276.311)" fill="#0052CC"/>
<path d="M3.73854 12.8984C7.09077 14.592 19.8802 13.398 19.8802 13.398C19.8802 13.398 13.2157 2.40713 9.86347 0.728524C8.25295 -0.083692 6.38574 -0.222849 4.67261 0.341637C2.95948 0.906123 1.54075 2.12802 0.728539 3.73854C-0.0836773 5.34906 -0.222857 7.21627 0.341629 8.92941C0.906115 10.6425 2.12802 12.0613 3.73854 12.8735V12.8984Z" transform="translate(156.943 306.556)" fill="#0052CC"/>
<path d="M2.7569 12.269C5.75442 14.5022 18.5788 15.5113 18.5788 15.5113C18.5788 15.5113 13.8677 3.56623 10.8452 1.33308C9.39501 0.2605 7.57813 -0.192056 5.79426 0.0749619C4.01039 0.34198 2.40565 1.30669 1.33308 2.75688C0.2605 4.20708 -0.192056 6.02398 0.0749619 7.80785C0.34198 9.59172 1.3067 11.1965 2.7569 12.269V12.269Z" transform="translate(155.202 338.714)" fill="#0052CC"/>
<path d="M94.7341 0H3C1.34315 0 0 1.34315 0 3V117.106C0 118.762 1.34314 120.106 3 120.106H94.7341C96.3909 120.106 97.7341 118.762 97.7341 117.106V3C97.7341 1.34315 96.3909 0 94.7341 0Z" transform="translate(329.563 175.494)" fill="#0052CC"/>
<path d="M0 14C0 21.732 6.26801 28 14 28C21.732 28 28 21.732 28 14C28 6.26801 21.732 0 14 0C6.26801 0 0 6.26801 0 14Z" transform="translate(339.156 186.277)" fill="white"/>
<path d="M73.8546 0H2.14545C0.96055 0 0 0.96055 0 2.14545C0 3.33035 0.96055 4.2909 2.14545 4.2909H73.8546C75.0395 4.2909 76 3.33035 76 2.14545C76 0.96055 75.0395 0 73.8546 0Z" transform="translate(339.156 225.277)" fill="#E8EAF1"/>
<path d="M73.8546 0H2.14545C0.96055 0 0 0.96055 0 2.14545C0 3.33035 0.96055 4.2909 2.14545 4.2909H73.8546C75.0395 4.2909 76 3.33035 76 2.14545C76 0.96055 75.0395 0 73.8546 0Z" transform="translate(339.156 234.395)" fill="#E8EAF1"/>
<path d="M73.8546 0H2.14545C0.96055 0 0 0.96055 0 2.14545C0 3.33035 0.96055 4.2909 2.14545 4.2909H73.8546C75.0395 4.2909 76 3.33035 76 2.14545C76 0.96055 75.0395 0 73.8546 0Z" transform="translate(339.156 243.513)" fill="#E8EAF1"/>
<path d="M73.8546 0H2.14545C0.96055 0 0 0.96055 0 2.14545C0 3.33035 0.96055 4.2909 2.14545 4.2909H73.8546C75.0395 4.2909 76 3.33035 76 2.14545C76 0.96055 75.0395 0 73.8546 0Z" transform="translate(339.156 252.631)" fill="#E8EAF1"/>
<path d="M73.8546 0H2.14545C0.96055 0 0 0.96055 0 2.14545C0 3.33035 0.96055 4.2909 2.14545 4.2909H73.8546C75.0395 4.2909 76 3.33035 76 2.14545C76 0.96055 75.0395 0 73.8546 0Z" transform="translate(339.156 261.749)" fill="#E8EAF1"/>
<path d="M73.8546 0H2.14545C0.96055 0 0 0.96055 0 2.14545C0 3.33035 0.96055 4.2909 2.14545 4.2909H73.8546C75.0395 4.2909 76 3.33035 76 2.14545C76 0.96055 75.0395 0 73.8546 0Z" transform="translate(339.156 270.868)" fill="#E8EAF1"/>
<path d="M73.8546 0H2.14545C0.96055 0 0 0.96055 0 2.14545C0 3.33035 0.96055 4.2909 2.14545 4.2909H73.8546C75.0395 4.2909 76 3.33035 76 2.14545C76 0.96055 75.0395 0 73.8546 0Z" transform="translate(339.156 279.986)" fill="#E8EAF1"/>
<path d="M7.29395 0C7.29395 0 7.88348 8.6728 8.87266 9.66198C9.86184 10.6512 0 11.2407 0 11.2407L1.37886 0H7.29395Z" transform="translate(449.988 345.138)" fill="#FFB9B9"/>
<path opacity="0.05" d="M7.29395 0C7.29395 0 7.88348 8.6728 8.87266 9.66198C9.86184 10.6512 0 11.2407 0 11.2407L1.37886 0H7.29395Z" transform="translate(449.988 345.138)" fill="black"/>
<path d="M23.6556 2.7627C23.6556 2.7627 22.2767 2.7627 17.3458 5.32558C17.3458 5.32558 13.9936 4.73608 12.6147 0C12.6147 0 8.47313 7.09912 5.71541 7.4938C2.95769 7.88847 -2.36787 8.28314 1.17919 13.0142C4.72625 17.7453 25.6289 15.5771 25.6289 15.5771C25.6289 15.5771 26.2135 4.14156 23.6556 2.7627Z" transform="translate(435.8 349.08)" fill="#E4E2F3"/>
<path opacity="0.05" d="M23.6556 2.7627C23.6556 2.7627 22.2767 2.7627 17.3458 5.32558C17.3458 5.32558 13.9936 4.73608 12.6147 0C12.6147 0 8.47313 7.09912 5.71541 7.4938C2.95769 7.88847 -2.36787 8.28314 1.17919 13.0142C4.72625 17.7453 25.6289 15.5771 25.6289 15.5771C25.6289 15.5771 26.2135 4.14156 23.6556 2.7627Z" transform="translate(435.8 349.08)" fill="black"/>
<path d="M10.4463 7.19946L9.06751 10.9464L0 8.38348L0.499586 4.66655L0.624483 3.76731L0.969168 1.26937C0.969168 1.26937 8.65781 -0.703993 8.65781 0.270201C8.75971 1.08329 8.92677 1.88688 9.1574 2.67321C9.47214 3.8872 9.86681 5.26606 10.1566 6.17031C10.3264 6.80479 10.4463 7.19946 10.4463 7.19946Z" transform="translate(446.046 351.348)" fill="#FFB9B9"/>
<path d="M10.5497 46.5664C10.0569 47.3982 9.79681 48.3473 9.79681 49.3142C9.79681 50.281 10.0569 51.2301 10.5497 52.0619C10.9374 52.7739 11.4142 53.4337 11.9685 54.0253C16.3049 58.7563 17.489 69.4025 17.489 69.4025V86.5533L14.5314 86.7781L9.80035 87.1429L2.70118 57.962C2.70118 57.962 -1.44037 36.6696 0.532994 32.9227C2.50636 29.1758 4.27989 5.71527 4.27989 5.71527L5.91855 4.02166L9.80035 0H21.041C21.9404 0.644365 22.6874 1.4783 23.2292 2.44295C25.1177 5.56537 26.8112 12.06 21.6355 24.0501C13.5522 42.7796 11.1842 45.7371 11.1842 45.7371C10.9415 45.9883 10.7286 46.2665 10.5497 46.5664V46.5664Z" transform="translate(440.992 260.558)" fill="#4C4C78"/>
<path opacity="0.05" d="M10.5497 46.5665C10.0569 47.3983 9.79681 48.3473 9.79681 49.3142C9.79681 50.281 10.0569 51.2301 10.5497 52.0619C10.9374 52.7739 11.4142 53.4337 11.9685 54.0253C16.3049 58.7564 17.489 69.4026 17.489 69.4026V86.5533L14.5314 86.7782L9.80035 87.1429L2.70118 57.962C2.70118 57.962 -1.44037 36.6697 0.532994 32.9228C2.50636 29.1759 4.27989 5.71527 4.27989 5.71527L5.91855 4.02166L9.80035 0H21.041C21.9404 0.644365 22.6874 1.47833 23.2292 2.44298C25.1177 5.5654 26.8112 12.06 21.6355 24.0501C13.5522 42.7796 11.1842 45.7371 11.1842 45.7371C10.9415 45.9883 10.7286 46.2665 10.5497 46.5665V46.5665Z" transform="translate(441.057 260.473)" fill="black"/>
<path d="M21.0389 24.2402C21.0389 24.2402 21.5385 39.7624 21.6084 49.5143C21.6084 51.7225 21.6084 53.6309 21.6084 55.0098C21.6197 55.7341 21.5662 56.4581 21.4485 57.173C20.859 58.9465 22.038 62.8882 22.038 62.8882C24.9966 70.6801 26.2074 79.0267 25.5851 87.338V96.0108L16.123 97.1948C16.123 97.1948 17.7016 96.0108 13.3602 84.5753C11.3303 79.0356 10.3002 73.1795 10.3177 67.2796C10.2949 64.931 9.82525 62.6082 8.9339 60.4353C8.66279 59.7027 8.49466 58.936 8.43432 58.1571C8.03964 54.2154 6.2661 49.2845 6.2661 49.2845C6.2661 49.2845 1.53503 35.2961 0.351012 25.0346C-0.195778 20.1541 -0.103413 15.2232 0.625778 10.3667C0.799695 9.13313 1.03647 7.9092 1.33518 6.69975C1.33518 6.69975 20.6092 -5.43021 27.8882 2.95285C28.5892 3.77361 29.145 4.70792 29.5318 5.71558C29.9314 6.7104 30.2423 7.73855 30.4611 8.78804C32.7242 19.9038 21.0389 24.2402 21.0389 24.2402Z" transform="translate(429.923 257.61)" fill="#4C4C78"/>
<path d="M10.0567 20.1133C15.6108 20.1133 20.1134 15.6108 20.1134 10.0567C20.1134 4.50253 15.6108 0 10.0567 0C4.50253 0 0 4.50253 0 10.0567C0 15.6108 4.50253 20.1133 10.0567 20.1133Z" transform="translate(440.321 175.384)" fill="#FFB9B9"/>
<path d="M0.638844 6.13492C0.638844 6.13492 4.78042 17.7653 0.638844 23.8802C-3.50273 29.9952 13.8479 28.0218 13.8479 28.0218L20.5524 19.9385C20.5524 19.9385 12.6639 19.9385 12.2692 6.13492C11.8746 -7.66865 0.638844 6.13492 0.638844 6.13492Z" transform="translate(444.218 185.61)" fill="#FFB9B9"/>
<path opacity="0.1" d="M34.2317 7.68392C32.8028 8.17787 31.3334 8.54565 29.8403 8.78301C27.3873 9.1627 24.4897 9.17768 22.7961 7.68392C21.797 6.79965 19.299 6.68475 16.3465 6.97451C10.0866 7.57402 1.61866 9.90707 0 10.3667C0.173916 9.1331 0.410687 7.9092 0.709404 6.69975C0.709404 6.69975 19.9834 -5.43021 27.2624 2.95285H31.4689C32.3683 3.59721 33.1153 4.43114 33.6571 5.3958C34.0218 6.9645 34.2317 7.68392 34.2317 7.68392Z" transform="translate(430.539 257.605)" fill="black"/>
<path opacity="0.1" d="M10.4463 2.53291L9.06751 6.2798L0 3.71692L0.499586 0C2.0583 3.44715 4.71607 3.91677 4.71607 3.91677C6.44755 2.95886 8.26375 2.1628 10.1416 1.53873C10.3264 2.13824 10.4463 2.53291 10.4463 2.53291Z" transform="translate(446.046 356.014)" fill="black"/>
<path d="M23.6556 2.76273C23.6556 2.76273 22.2767 2.76273 17.3458 5.32561C17.3458 5.32561 13.9936 4.73608 12.6147 0C12.6147 0 8.47315 7.09912 5.71544 7.4938C2.95772 7.88847 -2.36788 8.28317 1.17918 13.0143C4.72625 17.7453 25.6289 15.5771 25.6289 15.5771C25.6289 15.5771 26.2185 4.14159 23.6556 2.76273Z" transform="translate(433.427 354.8)" fill="#E4E2F3"/>
<path d="M0 6.98075C0 6.98075 0.384673 -0.697892 8.45299 0.0514874C8.67602 0.0741178 8.89018 0.150783 9.0769 0.274844C9.26361 0.398905 9.41725 0.566631 9.52452 0.763468C9.6318 0.960306 9.68948 1.18033 9.69254 1.40448C9.6956 1.62863 9.64395 1.85014 9.54209 2.04983L7.88846 5.16226L0 6.98075Z" transform="translate(410.306 180.383)" fill="#FFB9B9"/>
<path d="M46.5465 24.1841C46.5465 24.1841 36.8845 22.6054 34.3216 20.6371C34.3216 20.6371 32.3482 24.384 28.8012 22.4106C25.2541 20.4372 16.9709 20.6371 16.9709 20.6371C14.7993 19.3068 12.9369 17.528 11.5084 15.4197C10.0799 13.3114 9.11825 10.9222 8.68781 8.4122C8.68781 8.4122 7.30896 3.28644 7.68864 1.91758C7.68864 1.91758 2.56288 -3.40802 0 3.6911C0 7.04886 0.815186 10.0489 1.57868 12.1841L4.73107 20.8569C4.73107 20.8569 4.92592 23.8144 10.6462 27.7562C16.3664 31.6979 22.871 37.8128 22.871 37.8128C22.871 37.8128 19.4189 39.6863 20.7029 48.2642C22.2716 58.7555 19.9135 73.6982 19.9135 73.6982V83.3601C19.9135 83.3601 39.6322 77.6449 42.9794 80.5974C46.3266 83.55 54.4149 80.5974 54.4149 80.5974C54.4149 80.5974 53.4158 77.2452 52.0469 69.1619C50.678 61.0786 52.2418 53.1751 52.2418 53.1751C52.2418 53.1751 57.3675 39.5714 59.7355 34.051C62.1036 28.5305 57.962 21.0617 53.8205 18.279C49.6789 15.4963 48.1402 17.1749 48.1402 17.1749C48.1402 17.1749 55.4191 22.4106 46.5465 24.1841Z" transform="translate(410.341 183.728)" fill="#797C9C"/>
<path opacity="0.1" d="M0.39457 10.2214C4.89085 10.3163 8.21808 15.8617 6.22473 19.8634C5.35046 21.6219 3.6569 23.1706 3.83176 25.124C3.91169 26.0133 4.38625 26.8176 4.59108 27.6869C5.5353 31.6836 0.754289 35.4255 1.84838 39.3722C2.22187 40.4306 2.80272 41.4038 3.55696 42.2349L11.8601 52.6962C12.3643 53.2719 12.7817 53.9182 13.099 54.6146C13.4155 55.6061 13.5376 56.6493 13.4587 57.6871C13.4188 62.6829 13.7435 68.0435 16.6911 72.0951C20.2332 76.9611 27.4522 78.7096 32.8227 75.9969C31.5338 74.0435 30.1899 71.7554 30.8244 69.5023C31.5588 66.9494 34.4664 65.7704 36.145 63.7121C38.1733 61.2142 38.2233 57.6671 37.6437 54.5147C37.0642 51.3623 35.9002 48.2799 35.8752 45.0725C35.8353 39.8618 38.5031 33.8068 34.991 29.96C34.1866 29.0808 33.1175 28.4313 32.518 27.4021C32.0662 26.509 31.8528 25.5143 31.8985 24.5145C31.8435 18.4396 35.0659 12.2597 33.1325 6.49944C32.7639 5.21774 31.9868 4.09151 30.9193 3.2921C28.1816 1.44863 24.3847 3.23715 21.2173 2.29293C19.7186 1.85829 18.4846 0.849121 17.0208 0.35453C13.0741 -0.979366 9.42212 1.69841 6.69438 4.26628C5.56027 5.25721 4.35647 6.16546 3.09232 6.98404C3.28716 6.87912 -1.35398 10.1864 0.39457 10.2214Z" transform="translate(437.973 168.705)" fill="black"/>
<path d="M0.39457 10.2214C4.89085 10.3163 8.21808 15.8617 6.22473 19.8634C5.35046 21.6219 3.6569 23.1706 3.83176 25.124C3.91169 26.0133 4.38625 26.8176 4.59108 27.6869C5.5353 31.6836 0.754289 35.4255 1.84838 39.3722C2.22187 40.4306 2.80272 41.4038 3.55696 42.2349L11.8601 52.6962C12.3643 53.2719 12.7817 53.9182 13.099 54.6146C13.4155 55.6061 13.5376 56.6493 13.4587 57.6871C13.4188 62.6829 13.7435 68.0435 16.6911 72.0951C20.2332 76.9611 27.4522 78.7096 32.8227 75.9969C31.5338 74.0435 30.1899 71.7554 30.8244 69.5023C31.5588 66.9494 34.4664 65.7704 36.145 63.7121C38.1733 61.2142 38.2233 57.6671 37.6437 54.5147C37.0642 51.3623 35.9002 48.2799 35.8752 45.0725C35.8353 39.8618 38.5031 33.8068 34.991 29.96C34.1866 29.0808 33.1175 28.4313 32.518 27.4021C32.0662 26.509 31.8528 25.5143 31.8985 24.5145C31.8435 18.4396 35.0659 12.2597 33.1325 6.49944C32.7639 5.21774 31.9868 4.09151 30.9193 3.2921C28.1816 1.44863 24.3847 3.23715 21.2173 2.29293C19.7186 1.85829 18.4846 0.849121 17.0208 0.35453C13.0741 -0.979366 9.42212 1.69841 6.69438 4.26628C5.56027 5.25721 4.35647 6.16546 3.09232 6.98404C3.28716 6.87912 -1.35398 10.1864 0.39457 10.2214Z" transform="translate(438.473 168.705)" fill="black"/>
<path d="M1.08409 2.18319L0 5.4405L3.52708 8.96758L15.1974 11.6803L23.6104 10.866L23.0659 7.86849C22.9045 7.22736 22.5697 6.64306 22.0982 6.17955C21.6268 5.71604 21.0369 5.3912 20.3931 5.24066C16.936 4.42633 10.3414 2.57787 8.95258 0L1.08409 2.18319Z" transform="translate(251.892 353.926)" fill="#DB8B8B"/>
<path opacity="0.1" d="M1.08409 2.18319L0 5.4405L3.52708 8.96758L15.1974 11.6803L23.6104 10.866L23.0659 7.86849C22.9045 7.22736 22.5697 6.64306 22.0982 6.17955C21.6268 5.71604 21.0369 5.3912 20.3931 5.24066C16.936 4.42633 10.3414 2.57787 8.95258 0L1.08409 2.18319Z" transform="translate(251.892 353.926)" fill="black"/>
<path d="M22.7123 5.4105L21.0836 3.23731L22.7123 0.739378C22.7123 0.739378 27.5982 2.71273 29.7664 2.43795C31.9347 2.16318 33.0238 5.96506 28.9521 7.05416C24.8805 8.14326 1.80961 7.05416 1.80961 7.05416C1.80961 7.05416 -2.26202 5.15573 1.80961 0L5.33669 2.71275C5.33669 2.71275 11.3317 5.97005 14.2943 5.4255L22.7123 5.4105Z" transform="translate(250.077 358.572)" fill="#474463"/>
<path d="M23.6005 10.846L15.1874 11.6603L3.52708 8.92761L0 5.4305L0.289769 4.56623L0.694432 3.35721L1.08909 2.17319L8.95758 0C9.35644 0.650215 9.9023 1.19779 10.5513 1.59868C13.1091 3.34723 17.7003 4.59619 20.3931 5.24066C20.5067 5.26702 20.6184 5.3004 20.7278 5.34058C21.2983 5.53201 21.8115 5.86388 22.22 6.30563C22.6286 6.74739 22.9195 7.28483 23.0659 7.86849L23.6005 10.846Z" transform="translate(256.503 357.748)" fill="#DB8B8B"/>
<path d="M22.7123 5.41053C22.7123 5.41053 21.8511 5.07855 21.4674 3.40793C21.0837 1.73731 22.7123 0.739378 22.7123 0.739378C22.7123 0.739378 27.5983 2.71276 29.7665 2.43798C31.9347 2.16321 33.0238 5.96506 28.9522 7.05416C24.8805 8.14326 1.80961 7.05416 1.80961 7.05416C1.80961 7.05416 -2.26202 5.15573 1.80961 0L5.33669 2.71275C5.33669 2.71275 11.3317 5.97005 14.2943 5.4255L22.7123 5.41053Z" transform="translate(254.689 362.369)" fill="#474463"/>
<path d="M13.0292 14.3831C13.0292 14.3831 -1.19111e-06 15.742 1.90342 10.3115C2.43355 8.77266 2.57096 7.12581 2.30312 5.52044C1.96508 3.52914 1.1774 1.64112 0 0L12.2149 1.89844C11.4836 3.12225 10.927 4.44227 10.5613 5.82019C9.10747 11.5804 13.0292 14.3831 13.0292 14.3831Z" transform="translate(257.582 195.982)" fill="#DB8B8B"/>
<path d="M0 0C0 0 0.269777 11.6703 2.99752 17.3706L3.54205 33.9269C3.54205 33.9269 2.72772 49.1243 1.09907 52.1119C-0.529586 55.0994 4.62614 80.3385 4.62614 80.3385V84.6799C4.62614 84.6799 13.299 87.9272 15.7569 84.1304L13.314 51.8321L14.3981 7.04916L0 0Z" transform="translate(248.36 272.254)" fill="#474463"/>
<path opacity="0.1" d="M0 0C0 0 0.269777 11.6703 2.99752 17.3706L3.54205 33.9269C3.54205 33.9269 2.72772 49.1243 1.09907 52.1119C-0.529586 55.0994 4.62614 80.3385 4.62614 80.3385V84.6799C4.62614 84.6799 13.299 87.9272 15.7569 84.1304L13.314 51.8321L14.3981 7.04916L0 0Z" transform="translate(248.36 272.254)" fill="black"/>
<path d="M3.06911 0L1.44048 4.34141L0.0815938 13.5688C-0.101514 14.8541 0.024606 16.1646 0.449484 17.3915C0.874362 18.6183 1.58575 19.7261 2.52458 20.6229C5.78188 23.8802 10.1233 30.6646 10.1233 30.6646L15.279 15.1774C15.279 15.1774 10.1233 14.3631 10.9376 10.836C11.7519 7.30895 11.4822 0.794356 11.4822 0.794356L3.06911 0Z" transform="translate(239.865 234.785)" fill="#CBCDDA"/>
<path opacity="0.1" d="M3.06911 0L1.44048 4.34141L0.0815938 13.5688C-0.101514 14.8541 0.024606 16.1646 0.449484 17.3915C0.874362 18.6183 1.58575 19.7261 2.52458 20.6229C5.78188 23.8802 10.1233 30.6646 10.1233 30.6646L15.279 15.1774C15.279 15.1774 10.1233 14.3631 10.9376 10.836C11.7519 7.30895 11.4822 0.794356 11.4822 0.794356L3.06911 0Z" transform="translate(239.865 234.285)" fill="black"/>
<path d="M30.4032 30.1251C30.1334 33.9269 25.5172 47.7654 25.5172 47.7654L22.2649 59.156C19.9319 67.2106 18.7281 75.55 18.6878 83.9355C18.6878 86.7132 18.4331 89.5808 17.6487 91.7341C15.4755 97.7291 19.8219 105.847 19.8219 105.847C16.0201 112.632 9.51045 108.021 9.51045 108.021V103.679C9.51045 103.679 4.35472 80.0687 5.7086 75.4525C7.06248 70.8364 7.60703 58.3517 7.60703 58.3517V35.8254C3.25887 31.4927 0.61489 25.7401 0.158206 19.6188C0.0932594 18.7295 0.0433069 17.7953 0.00833584 16.8261C-0.211482 10.7011 3.97503 3.52208 5.60868 0.964198C6.00335 0.344711 6.24817 0 6.24817 0L30.2283 9.49214H30.2833V10.4214V12.4747L30.4032 30.1251Z" transform="translate(247.542 252.705)" fill="#474463"/>
<path opacity="0.1" d="M12.2149 1.89844C11.4836 3.12225 10.927 4.44227 10.5613 5.82019C9.23456 6.32454 7.82023 6.55786 6.40183 6.50638C4.98344 6.45489 3.58973 6.11965 2.30309 5.52044C1.96505 3.52914 1.1774 1.64112 0 0L12.2149 1.89844Z" transform="translate(257.587 195.982)" fill="black"/>
<path d="M10.5862 21.1725C16.4329 21.1725 21.1725 16.4329 21.1725 10.5862C21.1725 4.73962 16.4329 0 10.5862 0C4.73962 0 0 4.73962 0 10.5862C0 16.4329 4.73962 21.1725 10.5862 21.1725Z" transform="translate(253.785 180.779)" fill="#DB8B8B"/>
<path opacity="0.1" d="M25.7836 12.4847H25.6688C14.2882 14.8227 0 2.96254 0 2.96254C0.385508 2.32397 0.719619 1.65575 0.999173 0.964198C1.39385 0.344711 1.63863 0 1.63863 0L25.6188 9.49214L25.6787 10.4414L25.7836 12.4847Z" transform="translate(252.162 252.705)" fill="black"/>
<path d="M33.6521 6.34703C33.6521 6.34703 18.4547 -2.88033 13.5688 0.91653L6.78436 9.59933C6.78436 9.59933 2.44296 10.9582 3.25728 19.641L0 35.383L9.77191 37.826C9.77191 37.826 15.4722 43.2565 10.856 51.125C10.856 51.125 25.2391 63.0651 36.6396 60.6171L35.8003 47.8726C35.8003 47.8726 33.3574 40.8185 37.6988 34.3039C42.0402 27.7893 37.9686 21.5494 33.8969 19.1065C33.9269 19.1065 32.0235 8.79001 33.6521 6.34703Z" transform="translate(241.306 203.743)" fill="#CBCDDA"/>
<path d="M2.78645 0C2.78645 0 8.48671 1.0841 11.1995 5.4305C11.9831 6.73536 12.9393 7.92847 14.0421 8.97755C14.2894 9.20313 14.4808 9.48325 14.6009 9.79569C14.721 10.1081 14.7667 10.4443 14.7342 10.7775C14.7017 11.1106 14.592 11.4316 14.4137 11.7149C14.2355 11.9983 13.9936 12.2362 13.7074 12.4097C11.5542 13.7036 8.04207 14.503 3.60574 10.856C-3.99796 4.61617 2.78645 0 2.78645 0Z" transform="translate(272.986 265.459)" fill="#DB8B8B"/>
<path d="M10.5926 0.203924C10.5926 0.203924 5.1621 -0.340623 3.80822 13.7727C2.45434 27.886 0.281138 31.1433 0.281138 31.1433C0.281138 31.1433 -1.07774 38.4722 2.17956 42.8137C5.43686 47.1551 11.6717 56.3824 11.6717 56.3824C11.6717 56.3824 18.4561 58.2809 19.815 51.4965L11.4019 35.7545C11.4019 35.7545 10.048 30.329 13.3004 26.5471C16.5527 22.7653 19.0056 -2.51383 10.5926 0.203924Z" transform="translate(257.311 214.233)" fill="#CBCDDA"/>
<path d="M16.9809 0.311941C15.3323 0.516771 13.4489 1.08131 12.8543 2.63003C12.6962 3.21875 12.5711 3.81585 12.4797 4.41854C11.8652 6.79158 9.19738 7.91566 7.54874 9.70418C6.09495 11.3029 5.45547 13.4661 4.98086 15.5793C3.62963 21.6287 3.30706 27.8625 4.02667 34.019C4.55623 38.5153 5.64034 42.9517 5.94009 47.4729C6.23984 51.9942 5.69029 56.7502 3.21734 60.5471C2.15322 62.1807 0.754375 63.6145 0 65.413C1.55871 66.677 3.70193 66.8569 5.71027 66.9118C8.04167 66.9917 10.3731 66.9917 12.7045 66.9118C13.9285 66.8718 15.2024 66.7919 16.2665 66.1724C17.0478 65.6745 17.6906 64.9871 18.135 64.1741C19.4689 61.906 19.8086 59.1782 19.7486 56.5554C19.6887 53.9326 19.274 51.3147 19.249 48.6819C19.2241 47.2481 19.334 45.7293 20.1583 44.5553C20.7528 43.706 21.6571 43.1365 22.4314 42.452C25.339 39.8792 26.3332 35.7476 26.4281 31.8658C26.523 27.984 25.8836 24.0972 26.2133 20.2304C26.3432 18.7317 26.9077 16.8982 28.3965 16.6035C28.8737 16.584 29.3483 16.5238 29.8153 16.4236C31.0093 15.964 30.8944 14.2804 31.2342 13.0464C31.6188 11.6625 32.7979 10.5934 33.1326 9.19459C33.9119 5.9123 29.7354 1.99055 26.9976 0.846502C24.165 -0.327526 19.9185 -0.0477612 16.9809 0.311941Z" transform="translate(241.391 176.831)" fill="#472727"/>
</g>
<defs>
<filter id="filter0_d" x="57.067" y="69.2766" width="378.275" height="216" filterUnits="userSpaceOnUse" color-interpolation-filters="sRGB">
<feFlood flood-opacity="0" result="BackgroundImageFix"/>
<feColorMatrix in="SourceAlpha" type="matrix" values="0 0 0 0 0 0 0 0 0 0 0 0 0 0 0 0 0 0 255 0"/>
<feOffset dy="2"/>
<feGaussianBlur stdDeviation="4"/>
<feColorMatrix type="matrix" values="0 0 0 0 0 0 0 0 0 0 0 0 0 0 0 0 0 0 0.05 0"/>
<feBlend mode="normal" in2="BackgroundImageFix" result="effect1_dropShadow"/>
<feBlend mode="normal" in="SourceGraphic" in2="effect1_dropShadow" result="shape"/>
</filter>
<clipPath id="clip0">
<rect width="476.436" height="373.911" fill="white"/>
</clipPath>
</defs>
</svg>
